<?xml version="1.0" standalone="no"?>
<!DOCTYPE svg PUBLIC "-//W3C//DTD SVG 20010904//EN"
 "http://www.w3.org/TR/2001/REC-SVG-20010904/DTD/svg10.dtd">
<svg version="1.0" xmlns="http://www.w3.org/2000/svg"
 width="200.000000pt" height="200.000000pt" viewBox="0 0 200.000000 200.000000"
 preserveAspectRatio="xMidYMid meet">
<metadata>
Created by potrace 1.10, written by Peter Selinger 2001-2011
</metadata>
<g transform="translate(0.000000,200.000000) scale(0.100000,-0.100000)"
fill="#d9292a" stroke="none">
<path d="M836 1885 c-289 -60 -515 -233 -641 -488 -71 -144 -89 -224 -88 -397
0 -173 18 -255 88 -397 114 -232 327 -406 580 -475 114 -31 335 -31 450 1 317
86 560 329 646 646 31 114 32 335 1 450 -30 109 -101 249 -172 340 -112 141
-298 260 -475 306 -105 27 -294 34 -389 14z m354 -169 c30 -9 98 -36 150 -62
126 -63 245 -179 307 -299 69 -134 88 -210 88 -355 0 -145 -19 -221 -88 -355
-57 -111 -181 -235 -292 -292 -134 -69 -210 -88 -355 -88 -103 0 -138 4 -200
24 -133 41 -226 96 -321 191 -75 75 -94 100 -137 191 -79 162 -100 315 -67
474 32 149 96 267 204 376 106 106 224 171 371 204 79 18 258 13 340 -9z"/>
<path d="M900 1280 l0 -180 -180 0 -180 0 0 -100 0 -100 178 -2 177 -3 3 -177
2 -178 100 0 100 0 2 178 3 177 178 3 177 2 0 100 0 100 -180 0 -180 0 0 180
0 180 -100 0 -100 0 0 -180z"/>
</g>
</svg>
