<svg xmlns="http://www.w3.org/2000/svg" version="1.0" preserveAspectRatio="xMidYMid meet" viewBox="0.1 1 448.9 452.2">
<metadata>
Created by potrace 1.10, written by Peter Selinger 2001-2011
</metadata>
<g transform="translate(0.000000,1080.000000) scale(0.100000,-0.100000)" fill="#efefef" stroke="none">
<path d="M2209 10727 c-19 -34 -199 -345 -399 -692 -200 -346 -470 -814 -600 -1040 -614 -1064 -806 -1395 -915 -1585 -65 -113 -158 -274 -206 -357 l-88 -153 336 -317 c185 -175 340 -317 345 -315 5 1 294 206 643 455 l633 452 -394 5 -393 5 352 610 c194 336 435 753 536 928 101 174 186 317 190 317 6 0 1054 -1810 1067 -1843 6 -15 -28 -17 -391 -19 l-396 -3 213 -146 c117 -80 414 -283 660 -452 246 -169 451 -308 456 -309 10 -4 632 627 632 641 0 5 -183 326 -406 713 -223 387 -726 1258 -1117 1936 -391 677 -714 1232 -717 1232 -3 0 -21 -28 -41 -63z"/>
</g>
</svg>