<svg id="SvgjsSvg1001" width="288" height="288" xmlns="http://www.w3.org/2000/svg" version="1.1" xmlns:xlink="http://www.w3.org/1999/xlink" xmlns:svgjs="http://svgjs.com/svgjs"><defs id="SvgjsDefs1002"></defs><g id="SvgjsG1008" transform="matrix(1,0,0,1,0,0)"><svg xmlns="http://www.w3.org/2000/svg" width="288" height="288" version="1.0" viewBox="0 0 300 169"><g fill="#ffffff" transform="matrix(.1 0 0 -.1 0 169)" class="colorfff svgShape"><path d="M897 1556 c-79 -29 -139 -93 -163 -173 -40 -133 4 -224 164 -336 182-128 303 -309 345 -517 9 -41 20 -118 26 -171 12 -112 28 -155 77 -209 62 -68
187 -95 275 -58 97 42 145 124 160 277 32 311 146 521 369 679 141 99 174 148
175 257 0 59 -5 78 -30 124 -35 63 -82 105 -144 126 -89 30 -141 19 -277 -57
l-94 -53 -1 -255 c-1 -274 -3 -289 -55 -363 -89 -125 -294 -130 -394 -9 -55
66 -60 100 -60 376 l0 251 -48 26 c-26 14 -73 41 -105 59 -69 38 -158 49 -220
26z" fill="#949494" class="color000 svgShape"></path><path d="M1450 1418 c-89 -45 -105 -101 -99 -341 4 -138 5 -146 32 -186 31
-46 91 -81 142 -81 45 0 109 34 136 71 24 33 24 38 24 244 0 206 0 211 -24
244 -27 37 -90 70 -136 71 -17 0 -51 -10 -75 -22z" fill="#949494" class="color000 svgShape"></path></g></svg></g></svg>