<?xml version="1.0" standalone="no"?>
<!DOCTYPE svg PUBLIC "-//W3C//DTD SVG 20010904//EN"
 "http://www.w3.org/TR/2001/REC-SVG-20010904/DTD/svg10.dtd">
<svg version="1.0" xmlns="http://www.w3.org/2000/svg"
 width="187.000000pt" height="176.000000pt" viewBox="0 0 187.000000 176.000000"
 preserveAspectRatio="xMidYMid meet">
<metadata>
Created by potrace 1.10, written by Peter Selinger 2001-2011
</metadata>
<g transform="translate(0.000000,176.000000) scale(0.100000,-0.100000)"
fill="#ffffff" stroke="none">
<path d="M530 1570 c0 -40 0 -40 -40 -40 l-40 0 0 -45 0 -45 40 0 c40 0 40 0
40 -40 l0 -40 45 0 45 0 0 40 0 40 41 0 40 0 -3 43 c-3 41 -4 42 -40 45 -37 3
-38 4 -38 43 l0 39 -45 0 -45 0 0 -40z"/>
<path d="M1200 1570 c0 -40 0 -40 -40 -40 l-40 0 0 -45 0 -45 40 0 c40 0 40 0
40 -40 l0 -40 45 0 45 0 0 40 c0 40 0 40 40 40 l40 0 0 46 0 46 -40 -4 -40 -4
0 43 0 43 -45 0 -45 0 0 -40z"/>
<path d="M419 1045 c-79 -80 -145 -150 -147 -154 -2 -5 141 -169 316 -364
l320 -355 44 47 c128 132 599 663 596 671 -2 5 -67 75 -146 155 l-144 145
-347 0 -348 0 -144 -145z m760 43 c0 -7 -10 -35 -22 -61 l-22 -48 -60 61 -59
60 82 0 c59 0 82 -3 81 -12z m-434 -58 l-60 -61 -16 38 c-37 88 -41 83 53 83
l82 0 -59 -60z m237 -17 c38 -37 68 -71 68 -75 0 -5 -63 -8 -140 -8 -77 0
-140 3 -140 7 0 8 132 143 139 143 3 0 36 -30 73 -67z m-413 5 c40 -94 43 -88
-53 -88 -47 0 -86 3 -86 7 0 7 111 123 118 123 1 0 11 -19 21 -42z m740 -86
c-45 -2 -84 -1 -86 2 -3 2 5 32 18 66 l22 61 64 -63 64 -63 -82 -3z m-608
-257 c33 -88 66 -177 74 -197 8 -21 13 -38 11 -38 -6 0 -356 388 -356 395 0 3
48 4 106 3 l106 -3 59 -160z m389 158 c0 -8 -146 -407 -163 -447 -13 -28 -16
-21 -96 200 -46 126 -86 235 -88 242 -4 9 34 12 171 12 97 0 176 -3 176 -7z
m288 -21 c-66 -78 -332 -371 -335 -368 -2 2 29 92 69 200 l73 196 108 0 109 0
-24 -28z"/>
</g>
</svg>
