<?xml version="1.0" standalone="no"?>
<!DOCTYPE svg PUBLIC "-//W3C//DTD SVG 20010904//EN"
 "http://www.w3.org/TR/2001/REC-SVG-20010904/DTD/svg10.dtd">
<svg version="1.0" xmlns="http://www.w3.org/2000/svg"
 width="300.000000pt" height="290.000000pt" viewBox="0 0 300.000000 290.000000"
 preserveAspectRatio="xMidYMid meet">
<metadata>
Created by potrace 1.10, written by Peter Selinger 2001-2011
</metadata>
<g transform="translate(0.000000,290.000000) scale(0.100000,-0.100000)"
fill="#ffffff" stroke="none">
<path d="M984 2334 c-131 -47 -216 -217 -171 -347 l15 -45 -93 -4 c-102 -4
-133 -17 -165 -71 -17 -28 -20 -51 -20 -179 0 -146 0 -147 26 -167 27 -21 30
-21 1046 -21 l1020 0 30 30 30 30 -4 139 c-3 122 -6 143 -24 167 -43 58 -68
69 -169 72 l-93 4 15 36 c21 50 13 163 -15 218 -28 55 -102 119 -159 138 -68
23 -148 20 -208 -8 -27 -12 -98 -66 -157 -119 l-106 -97 -57 30 c-38 20 -71
30 -99 30 -47 -1 -109 -21 -135 -44 -10 -9 -20 -16 -24 -16 -3 0 -58 47 -121
104 -127 115 -170 137 -265 135 -31 0 -75 -7 -97 -15z m148 -147 c29 -13 268
-226 268 -239 0 -4 -80 -8 -177 -8 -159 0 -181 2 -207 19 -40 27 -55 57 -56
112 0 91 90 153 172 116z m1072 -1 c69 -29 101 -106 70 -171 -32 -68 -55 -75
-257 -75 -98 0 -177 4 -175 9 7 20 240 223 270 236 42 18 51 18 92 1z"/>
<path d="M682 841 c3 -529 3 -540 24 -568 11 -15 36 -38 54 -50 33 -23 37 -23
381 -23 l349 0 0 590 0 590 -405 0 -406 0 3 -539z"/>
<path d="M1750 790 l0 -590 348 0 c392 0 396 1 439 76 l23 39 0 533 0 532
-405 0 -405 0 0 -590z"/>
</g>
</svg>
