<svg id="SvgjsSvg1018" width="288" height="288" xmlns="http://www.w3.org/2000/svg" version="1.1" xmlns:xlink="http://www.w3.org/1999/xlink" xmlns:svgjs="http://svgjs.com/svgjs"><defs id="SvgjsDefs1019"></defs><g id="SvgjsG1020"><svg xmlns="http://www.w3.org/2000/svg" width="288" height="288" version="1.0" viewBox="0 0 270 270"><g fill="#ffffff" transform="matrix(.1 0 0 -.1 0 270)" class="colorfff svgShape"><path d="M1220 1953 c-93 -3 -317 -22 -347 -30 -15 -3 -23 -13 -23 -27 0 -18-12 -25 -78 -44 -106 -32 -285 -121 -355 -177 -62 -50 -115 -117 -133 -168
-11 -32 -11 -32 -87 -35 -43 -2 -77 -5 -77 -7 0 -2 16 -31 35 -64 l36 -61 89
0 c79 0 90 2 90 18 0 34 58 138 103 184 111 115 299 193 546 229 108 15 396 6
510 -16 343 -67 544 -212 544 -390 0 -144 -120 -258 -366 -344 -168 -59 -271
-75 -477 -75 -190 1 -301 16 -448 61 l-53 17 -47 -48 c-46 -46 -46 -47 -27
-62 51 -38 263 -86 437 -100 84 -6 87 -7 99 -37 l13 -30 170 6 c514 16 863
179 1001 467 45 93 58 100 171 100 l74 0 0 35 0 35 -94 0 c-90 0 -96 1 -115
26 -12 15 -21 32 -21 38 0 33 -57 125 -112 183 -133 138 -332 237 -571 284
-123 24 -329 38 -487 32z" fill="#949494" class="color000 svgShape"></path><path d="M1142 1451 c-65 -22 -89 -43 -95 -84 -12 -87 48 -131 179 -130 65 0
92 5 136 26 31 14 61 35 67 46 10 18 21 21 77 21 62 0 65 1 62 23 -3 20 -10
22 -62 25 -49 3 -66 8 -93 32 -37 33 -118 60 -177 60 -23 -1 -65 -9 -94 -19z" fill="#949494" class="color000 svgShape"></path></g></svg></g></svg>