<svg id="SvgjsSvg1025" width="288" height="288" xmlns="http://www.w3.org/2000/svg" version="1.1" xmlns:xlink="http://www.w3.org/1999/xlink" xmlns:svgjs="http://svgjs.com/svgjs"><defs id="SvgjsDefs1026"></defs><g id="SvgjsG1027"><svg xmlns="http://www.w3.org/2000/svg" width="288" height="288" version="1.0" viewBox="0 0 300 215"><path fill="#949494" d="M4996 3491 c-18 -25 -180 -183 -360 -351 -179 -169 -399 -377 -488-464 l-162 -156 -188 194 c-103 107 -305 315 -448 462 -143 146 -263 275 -267
285 -14 41 -56 11 -280 -196 -128 -118 -273 -252 -323 -297 -49 -45 -178 -163
-287 -262 l-196 -181 -367 373 c-201 204 -413 424 -470 487 -86 94 -173 144
-129 74 13 -21 -24 -2081 -43 -2386 -6 -109 -4 -194 5 -190 9 4 104 97 210
207 l193 200 11 260 c7 143 12 417 13 610 l0 349 280 -279 279 -279 66 61
c355 332 976 887 989 886 9 -2 106 -99 216 -215 111 -117 314 -332 452 -478
l250 -264 303 279 c167 154 309 280 317 280 7 0 8 -92 1 -205 -7 -113 -14
-387 -16 -610 l-3 -405 185 -191 c102 -105 188 -189 192 -185 3 4 16 272 28
596 11 325 26 703 32 840 17 392 46 1190 42 1193 -2 2 -18 -17 -37 -42z
m-1862 -341 c27 -14 47 -32 46 -39 -1 -8 21 -32 49 -54 28 -22 51 -53 51 -68
0 -16 9 -29 20 -29 30 0 100 -66 100 -95 0 -14 23 -35 50 -45 28 -10 50 -29
50 -41 0 -40 285 -304 301 -278 10 17 19 12 27 -16 8 -22 40 -52 72 -65 33
-14 54 -33 47 -44 -8 -13 1 -13 26 -1 20 11 48 16 62 11 16 -6 21 2 13 23 -9
23 -4 28 20 19 22 -8 32 -1 34 25 0 20 5 26 11 13 14 -34 112 40 277 211 77
79 169 158 205 176 35 17 60 38 55 47 -8 14 41 62 165 161 30 24 27 31 37 -84
7 -81 2 -94 -35 -104 -29 -7 -38 -21 -30 -43 7 -18 14 -53 14 -77 2 -42 2 -42
20 -3 13 29 16 15 13 -53 -2 -51 -11 -89 -19 -84 -8 5 -15 -23 -15 -62 0 -39
10 -71 22 -71 14 0 16 -14 7 -35 -8 -19 -17 -75 -19 -125 -9 -145 -9 -148 -45
-195 -34 -43 -35 -39 -31 145 2 107 -5 190 -15 190 -11 0 -19 16 -19 35 -1 30
-3 31 -20 5 -16 -23 -19 -19 -15 20 3 31 -4 48 -20 45 -14 -3 -25 2 -25 11 0
9 -36 18 -80 21 -45 3 -80 -4 -80 -16 0 -12 -17 -21 -38 -21 -20 0 -48 -13
-62 -30 -14 -16 -35 -30 -48 -30 -12 0 -31 -20 -42 -45 -11 -24 -41 -55 -66
-67 -26 -13 -60 -42 -77 -66 -16 -23 -38 -42 -48 -42 -11 0 -36 -17 -56 -37
-41 -41 -126 -44 -139 -4 -6 17 1 22 18 13 16 -8 6 2 -21 22 -27 20 -67 56
-88 80 -22 25 -48 39 -59 32 -11 -7 -14 -3 -7 9 7 11 -1 26 -17 32 -17 7 -28
19 -25 27 3 9 -47 69 -110 134 -63 64 -115 125 -115 135 0 9 -15 17 -33 17
-19 0 -28 5 -22 12 18 18 -31 66 -53 53 -10 -6 -12 -2 -5 10 7 12 -16 45 -52
74 -36 29 -96 81 -134 116 -40 37 -72 53 -76 40 -5 -16 -23 -17 -57 -4 -28 10
-45 11 -39 1 9 -15 -15 -26 -104 -46 -8 -2 -37 -25 -65 -50 -27 -26 -62 -42
-77 -36 -18 7 -24 0 -16 -20 7 -18 1 -30 -15 -30 -15 0 -33 -13 -39 -30 -16
-40 -73 -38 -73 2 0 21 11 28 31 20 17 -6 26 -3 19 8 -6 10 13 39 42 64 96 82
146 143 134 163 -7 10 -2 13 11 5 13 -8 23 -4 23 8 0 12 9 17 20 10 11 -7 20
-3 20 9 0 11 13 21 29 21 16 0 35 10 43 23 9 15 5 18 -12 7 -16 -10 -21 -8
-14 4 15 24 122 10 188 -24z m-1822 -162 c23 -23 47 -57 54 -76 8 -19 23 -29
34 -22 11 7 29 -11 40 -39 10 -28 47 -68 82 -89 34 -21 98 -82 142 -134 43
-53 94 -98 112 -101 18 -3 49 -27 70 -55 76 -105 222 -94 353 27 48 45 100 81
114 81 15 0 27 10 27 21 0 12 8 17 17 11 24 -15 90 60 75 85 -6 10 20 34 59
52 40 19 64 43 57 55 -8 12 -2 17 14 12 38 -13 48 -75 17 -103 -19 -17 -21
-17 -11 2 8 14 8 25 0 25 -15 0 -113 -99 -128 -130 -6 -11 -22 -17 -38 -13
-18 4 -23 -5 -15 -25 6 -18 3 -33 -8 -34 -10 -2 -28 -4 -39 -5 -11 -2 -21 -12
-21 -23 -3 -38 -66 -91 -95 -80 -19 7 -25 1 -17 -18 10 -27 -38 -63 -73 -55
-10 2 -12 -5 -5 -15 13 -21 -62 -100 -98 -104 -78 -9 -201 50 -179 85 6 10 3
16 -6 12 -9 -3 -59 37 -109 87 -51 51 -120 105 -153 120 -34 14 -57 33 -52 42
6 9 -4 10 -21 4 -17 -7 -31 -2 -31 11 0 14 -23 7 -57 -17 -32 -22 -64 -34 -72
-26 -8 8 -13 5 -10 -6 9 -44 -3 -70 -31 -70 -30 0 -38 -20 -31 -83 1 -19 -7
-39 -19 -47 -13 -8 -20 -94 -19 -233 2 -121 -3 -226 -11 -233 -8 -8 -12 9 -10
36 7 86 -1 115 -20 70 -13 -31 -17 -22 -17 40 0 62 4 71 17 40 13 -29 17 -13
17 60 0 74 -4 90 -17 60 -12 -27 -17 19 -17 135 1 96 10 175 19 175 10 0 18
10 18 21 0 12 -9 16 -20 9 -11 -7 -20 -3 -20 9 0 11 11 21 25 21 18 1 19 5 2
15 -25 17 -27 247 -1 231 8 -5 11 38 5 95 -14 147 15 173 101 87z m3501 -1008
c2 -38 -3 -79 -12 -90 -8 -11 -14 -76 -13 -145 1 -69 -4 -125 -12 -125 -7 0
-5 -27 4 -60 17 -58 -3 -83 -31 -39 -19 31 -24 139 -7 139 8 0 10 35 4 77 -6
43 0 96 12 119 13 25 15 46 4 53 -11 6 -23 -4 -28 -24 -8 -31 -10 -31 -12 -1
-1 18 12 47 29 65 18 17 23 31 12 31 -11 0 -19 18 -17 41 5 71 64 36 67 -41z
m-3573 -230 c0 -60 -7 -110 -15 -110 -12 0 -17 133 -7 205 8 57 22 -4 22 -95z" transform="matrix(.05 0 0 -.05 0 215)" class="colorfff svgShape"></path></svg></g></svg>