<?xml version="1.0" standalone="no"?>
<!DOCTYPE svg PUBLIC "-//W3C//DTD SVG 20010904//EN"
 "http://www.w3.org/TR/2001/REC-SVG-20010904/DTD/svg10.dtd">
<svg version="1.0" xmlns="http://www.w3.org/2000/svg"
 width="300.000000pt" height="300.000000pt" viewBox="0 0 300.000000 300.000000"
 preserveAspectRatio="xMidYMid meet">
<metadata>
Created by potrace 1.10, written by Peter Selinger 2001-2011
</metadata>
<g transform="translate(0.000000,300.000000) scale(0.100000,-0.100000)"
fill="#ffffff" stroke="none">
<path d="M938 2739 c-338 -28 -563 -202 -647 -499 -32 -115 -41 -275 -41 -740
0 -465 9 -625 41 -740 68 -240 229 -401 469 -469 115 -32 275 -41 740 -41 606
0 721 13 891 101 88 46 192 143 244 229 39 64 79 178 95 270 17 96 25 1000 11
1175 -17 214 -62 348 -155 462 -130 158 -289 232 -541 253 -140 11 -965 11
-1107 -1z m1172 -233 c117 -22 180 -50 249 -112 71 -65 106 -120 135 -213 19
-62 20 -97 24 -634 3 -608 0 -664 -48 -790 -30 -79 -113 -167 -193 -207 -132
-64 -142 -65 -777 -65 -712 0 -729 3 -864 125 -60 55 -100 127 -132 235 -16
53 -18 120 -21 610 -4 571 0 657 36 761 41 117 166 237 279 270 100 29 148 31
697 32 415 1 557 -2 615 -12z"/>
<path d="M2100 2298 c-135 -70 -87 -278 65 -278 91 0 165 83 150 171 -9 52
-55 105 -103 119 -52 14 -62 13 -112 -12z"/>
<path d="M1342 2120 c-281 -74 -482 -332 -482 -620 0 -364 310 -657 674 -638
171 10 321 81 439 209 111 119 167 263 167 429 0 107 -21 194 -68 290 -49 101
-178 231 -274 278 -145 71 -311 90 -456 52z m223 -210 c222 -36 381 -253 346
-471 -37 -226 -252 -385 -473 -349 -224 36 -384 252 -349 471 32 197 195 342
401 358 8 0 42 -4 75 -9z"/>
</g>
</svg>
