<svg id="SvgjsSvg1030" width="288" height="288" xmlns="http://www.w3.org/2000/svg" version="1.1" xmlns:xlink="http://www.w3.org/1999/xlink" xmlns:svgjs="http://svgjs.com/svgjs"><defs id="SvgjsDefs1031"></defs><g id="SvgjsG1032"><svg xmlns="http://www.w3.org/2000/svg" width="288" height="288" version="1.0" viewBox="0 0 651 696"><g fill="#ffffff" transform="matrix(.1 0 0 -.1 0 696)" class="colorfff svgShape"><path d="M360 6930 c0 -18 6 -33 15 -36 8 -4 15 -17 15 -30 0 -14 7 -27 15-30 8 -4 15 -16 15 -29 0 -12 7 -28 15 -35 8 -7 15 -21 15 -32 0 -10 7 -21 15
-24 9 -4 15 -19 15 -35 0 -19 5 -29 15 -29 9 0 15 -9 15 -24 0 -13 7 -29 15
-36 8 -7 15 -20 15 -30 0 -10 7 -23 15 -30 8 -7 15 -23 15 -35 0 -13 7 -25 15
-29 8 -3 15 -16 15 -30 0 -13 7 -26 15 -30 8 -3 15 -17 15 -31 0 -14 7 -28 15
-31 8 -4 15 -17 15 -30 0 -14 7 -27 15 -30 13 -5 15 -327 15 -2814 0 -2487 -2
-2809 -15 -2814 -8 -3 -15 -17 -15 -31 0 -14 -7 -28 -15 -31 -8 -4 -15 -17
-15 -30 0 -14 -7 -27 -15 -30 -8 -4 -15 -16 -15 -29 0 -12 -7 -28 -15 -35 -8
-7 -15 -21 -15 -32 0 -10 -7 -21 -15 -24 -8 -4 -15 -16 -15 -29 0 -12 -7 -28
-15 -35 -8 -7 -15 -23 -15 -36 0 -15 -6 -24 -15 -24 -10 0 -15 -10 -15 -29 0
-16 -6 -31 -15 -35 -8 -3 -15 -14 -15 -24 0 -11 -7 -25 -15 -32 -8 -7 -15 -23
-15 -35 0 -13 -7 -25 -15 -29 -8 -3 -15 -16 -15 -30 0 -13 -7 -26 -15 -30 -8
-3 -15 -15 -15 -26 0 -17 6 -20 44 -20 29 0 44 4 43 12 -1 37 4 58 13 53 5 -3
10 -19 10 -36 l0 -29 1981 0 c1467 0 1986 3 2002 11 16 9 22 9 25 0 2 -6 24
-11 48 -11 40 0 44 2 44 24 0 13 7 26 15 30 11 4 15 20 15 55 0 34 4 51 15 55
10 4 15 20 15 50 0 30 5 46 15 50 11 4 15 20 15 55 0 34 4 51 15 55 10 4 15
20 15 50 0 30 5 46 15 50 10 4 15 19 15 49 0 27 6 49 15 57 9 8 15 29 15 55 0
29 5 45 15 49 10 4 15 19 15 49 0 27 6 49 15 57 9 7 15 29 15 52 0 22 7 46 15
54 9 9 15 34 15 59 0 29 5 45 15 49 10 4 15 19 15 49 0 27 6 49 15 57 9 8 15
30 15 57 0 30 5 45 15 49 9 4 15 19 15 42 0 19 7 44 17 54 16 17 -28 18 -1380
18 l-1397 0 0 2815 0 2815 -849 0 -849 0 -4 -30 c-3 -18 1 -35 11 -45 14 -13
13 -15 -7 -15 -13 0 -22 6 -21 13 2 6 -1 27 -5 45 -7 29 -11 32 -47 32 -37 0
-39 -2 -39 -30z m304 -379 c4 -7 0 -11 -12 -11 -11 0 -25 13 -34 34 -15 31
-15 35 0 50 15 15 17 13 28 -23 6 -21 14 -43 18 -50z m246 39 c0 -13 -7 -20
-20 -20 -13 0 -20 7 -20 20 0 13 7 20 20 20 13 0 20 -7 20 -20z m-206 -160
c-4 -11 -10 -6 -23 19 -17 31 -17 35 -2 50 15 15 17 14 24 -18 4 -19 5 -42 1
-51z m113 8 c-2 -13 -4 -5 -4 17 -1 22 1 32 4 23 2 -10 2 -28 0 -40z m-29
-133 l-1 -33 -24 26 c-35 38 -28 89 8 56 11 -10 18 -29 17 -49z m122 13 c0
-11 -7 -18 -20 -18 -16 0 -20 7 -20 37 0 35 0 36 20 18 11 -10 20 -26 20 -37z
m-103 -66 c6 -4 11 -22 11 -40 -1 -31 -2 -32 -20 -16 -10 10 -18 28 -18 41 0
24 7 28 27 15z m11 -196 c0 -22 -2 -23 -19 -8 -19 16 -17 32 5 32 8 0 14 -11
14 -24z m1246 -4417 c-20 -22 -34 -16 -34 15 0 32 11 39 32 19 17 -15 17 -18
2 -34z m14 -113 c2 -10 -5 -26 -16 -36 -18 -18 -19 -17 -19 21 0 31 4 39 16
37 9 -2 17 -11 19 -22z m-3 -105 c3 -6 -1 -13 -9 -18 -8 -4 -16 -19 -19 -33
-2 -14 -4 -6 -4 18 0 40 17 57 32 33z m2765 -210 c0 -5 -7 -14 -15 -21 -9 -7
-15 -20 -14 -29 3 -33 -1 -52 -11 -46 -5 3 -10 18 -10 33 0 15 -5 34 -10 42
-14 22 17 52 41 39 11 -5 19 -13 19 -18z m-4037 -533 c-10 -11 -16 -31 -15
-47 2 -17 -4 -34 -17 -46 -21 -18 -21 -18 -21 17 0 20 7 41 15 48 8 7 15 21
15 32 0 10 7 21 15 24 8 4 16 14 16 23 1 9 4 6 6 -7 3 -14 -3 -32 -14 -44z
m3857 -41 c0 -41 -33 -79 -44 -52 -8 22 -8 70 1 78 3 4 15 7 25 7 14 0 18 -8
18 -33z m-3750 -15 c0 -11 -9 -27 -20 -37 -20 -18 -20 -17 -20 18 0 30 4 37
20 37 13 0 20 -7 20 -18z m-180 -87 c0 -8 -4 -23 -9 -33 -16 -28 -24 -56 -22
-69 1 -7 -7 -13 -19 -13 -13 0 -20 7 -20 20 0 11 4 20 9 20 6 0 13 20 17 45 5
35 10 45 25 45 11 0 19 -7 19 -15z m3717 -157 c-2 -13 -4 -5 -4 17 -1 22 1 32
4 23 2 -10 2 -28 0 -40z m151 30 c-2 -13 -10 -23 -18 -23 -8 0 -16 10 -18 23
-3 17 2 22 18 22 16 0 21 -5 18 -22z m-3955 -99 c-6 -6 -15 -3 -25 8 -14 16
-14 21 0 53 l16 35 9 -43 c7 -28 7 -46 0 -53z m267 41 c0 -13 -7 -20 -20 -20
-13 0 -20 7 -20 20 0 13 7 20 20 20 13 0 20 -7 20 -20z m3666 -24 c-4 -17 -13
-26 -26 -26 -16 0 -18 4 -11 18 5 9 12 26 16 36 9 30 29 3 21 -28z m-4001 -76
c3 -5 -3 -10 -15 -10 -12 0 -18 5 -15 10 3 6 10 10 15 10 5 0 12 -4 15 -10z
m3948 -52 c-16 -18 -18 -19 -21 -3 -4 19 16 37 31 28 4 -3 0 -14 -10 -25z
m-135 -67 c1 -27 -4 -43 -18 -56 -19 -17 -19 -16 -18 31 0 43 10 63 29 64 3 0
6 -17 7 -39z m132 -36 c0 -7 -10 -23 -23 -37 l-23 -25 -1 46 c-1 25 4 49 11
53 12 8 36 -17 36 -37z" fill="#949494" class="color000 svgShape"></path><path d="M2950 6475 c-17 -10 -57 -14 -126 -15 -78 0 -104 -4 -114 -15 -9 -10
-32 -15 -74 -15 -39 0 -69 -5 -82 -15 -10 -8 -29 -15 -41 -15 l-23 0 0 -230 0
-230 24 0 c13 0 29 7 36 15 8 10 30 15 65 15 35 0 57 5 65 15 9 11 33 15 86
15 56 0 75 4 82 16 8 14 54 15 391 15 334 0 385 -2 400 -15 13 -12 39 -16 93
-16 55 0 79 -4 88 -15 8 -9 30 -15 60 -15 30 0 52 -6 60 -15 8 -9 30 -15 60
-15 33 0 50 -5 54 -15 3 -10 19 -15 44 -15 23 0 45 -6 52 -15 7 -8 25 -15 40
-15 15 0 33 -7 40 -15 7 -8 25 -15 40 -15 15 0 33 -7 40 -15 7 -8 23 -15 35
-15 12 0 28 -7 35 -15 7 -8 20 -15 30 -15 10 0 23 -7 30 -15 7 -8 21 -15 32
-15 11 0 26 -7 34 -15 9 -8 24 -15 34 -15 10 0 20 -7 24 -15 3 -8 15 -15 26
-15 11 0 23 -7 26 -15 4 -8 17 -15 30 -15 13 0 24 -5 24 -10 0 -6 10 -15 23
-20 33 -15 61 -33 70 -47 4 -7 16 -13 26 -13 11 0 21 -7 25 -15 3 -8 12 -15
20 -15 7 0 16 -7 20 -15 3 -8 10 -15 17 -15 11 0 84 -52 104 -75 6 -6 37 -31
70 -57 91 -70 385 -375 385 -399 0 -5 4 -9 8 -9 9 0 75 -88 85 -112 3 -10 11
-18 17 -18 5 0 10 -7 10 -15 0 -9 7 -18 15 -21 8 -4 15 -15 15 -25 0 -10 5
-19 10 -19 6 0 15 -10 21 -22 15 -34 35 -68 48 -81 6 -6 11 -19 11 -28 0 -9 7
-19 15 -23 8 -3 15 -14 15 -24 0 -11 7 -25 15 -32 8 -7 15 -21 15 -32 0 -10 7
-21 15 -24 8 -4 15 -16 15 -29 0 -12 7 -28 15 -35 8 -7 15 -23 15 -37 0 -13 7
-26 15 -29 9 -4 15 -19 15 -35 0 -17 6 -32 15 -35 9 -4 15 -19 15 -40 0 -22 6
-37 15 -40 10 -4 15 -20 15 -45 0 -26 5 -42 15 -45 10 -4 15 -20 15 -44 0 -21
7 -43 15 -50 9 -8 15 -30 15 -60 0 -30 6 -52 15 -60 10 -8 15 -31 15 -71 0
-38 5 -63 15 -73 11 -11 15 -39 15 -108 1 -62 6 -101 15 -118 21 -37 21 -446
0 -474 -11 -15 -15 -48 -15 -122 0 -81 -3 -103 -15 -108 -11 -4 -15 -22 -15
-69 0 -45 -5 -68 -15 -77 -9 -8 -15 -30 -15 -60 0 -30 -6 -52 -15 -60 -8 -7
-15 -29 -15 -50 0 -24 -5 -40 -15 -44 -9 -3 -15 -18 -15 -39 0 -19 -7 -40 -15
-47 -8 -7 -15 -25 -15 -40 0 -15 -7 -33 -15 -40 -8 -7 -15 -25 -15 -40 0 -16
-7 -30 -15 -34 -8 -3 -15 -16 -15 -30 0 -13 -7 -26 -15 -30 -9 -3 -15 -18 -15
-35 0 -16 -6 -31 -15 -35 -8 -3 -15 -14 -15 -24 0 -11 -7 -25 -15 -32 -8 -7
-15 -21 -15 -32 0 -10 -7 -21 -15 -24 -8 -4 -15 -15 -15 -25 0 -10 -4 -19 -10
-19 -5 0 -12 -11 -16 -24 -3 -14 -12 -27 -20 -30 -8 -3 -14 -15 -14 -26 0 -11
-5 -20 -10 -20 -6 0 -15 -11 -20 -25 -5 -14 -14 -25 -20 -25 -5 0 -10 -9 -10
-20 0 -11 -5 -20 -10 -20 -6 0 -13 -7 -17 -16 -3 -9 -19 -30 -34 -47 -16 -17
-29 -35 -29 -40 0 -8 -18 -30 -71 -87 -8 -9 -18 -24 -22 -33 -3 -9 -11 -17
-17 -17 -5 0 -10 -21 -10 -46 0 -27 -6 -51 -15 -60 -9 -9 -15 -34 -15 -59 0
-29 -5 -45 -15 -49 -10 -4 -15 -20 -15 -50 0 -30 -5 -46 -15 -50 -10 -4 -15
-19 -15 -49 0 -27 -6 -49 -15 -57 -9 -7 -15 -29 -15 -55 0 -26 -6 -48 -15 -55
-8 -7 -15 -29 -15 -50 0 -21 -7 -43 -15 -50 -9 -7 -15 -29 -15 -55 0 -26 -6
-48 -15 -55 -20 -17 -20 -70 0 -70 9 0 18 7 21 15 4 8 11 15 18 15 6 0 33 20
61 45 27 25 53 45 58 45 24 0 467 445 467 470 0 4 7 10 15 14 8 3 15 11 15 18
0 7 14 26 30 42 17 16 30 35 30 42 0 6 7 14 15 18 8 3 15 11 15 18 0 8 14 28
30 46 17 18 30 38 30 44 0 5 13 27 30 48 16 21 30 45 30 53 0 8 7 17 15 21 8
3 15 14 15 25 0 10 7 21 15 25 8 3 15 12 15 19 0 8 7 20 15 27 8 7 15 21 15
32 0 10 7 21 15 24 8 4 15 17 15 30 0 14 7 27 15 30 8 4 15 16 15 29 0 12 7
28 15 35 8 7 15 23 15 35 0 13 7 25 15 29 9 3 15 18 15 36 0 18 6 33 15 36 8
4 15 18 15 34 0 15 7 33 15 40 8 7 15 27 15 45 0 20 6 35 15 39 9 3 15 18 15
39 0 19 7 40 15 47 8 7 15 29 15 50 0 24 5 40 15 44 11 4 15 20 15 56 0 36 4
52 15 56 11 5 15 22 15 64 0 39 5 62 15 70 11 9 15 33 15 85 0 52 4 76 15 85
12 10 15 46 15 200 0 104 3 195 6 204 3 9 15 16 25 16 16 0 19 8 19 45 0 37
-3 45 -19 45 -10 0 -22 7 -25 16 -3 9 -6 98 -6 199 0 150 -3 186 -15 199 -10
10 -15 36 -15 85 0 48 -5 74 -15 85 -10 9 -15 34 -15 71 0 40 -4 57 -15 61
-10 4 -15 21 -15 54 0 30 -6 52 -15 60 -8 7 -15 29 -15 50 0 21 -7 43 -15 50
-8 7 -15 28 -15 47 0 21 -6 36 -15 39 -9 4 -15 19 -15 39 0 18 -7 38 -15 45
-8 7 -15 23 -15 35 0 12 -7 28 -15 35 -8 7 -15 23 -15 35 0 12 -7 28 -15 35
-8 7 -15 21 -15 31 0 9 -7 24 -15 33 -8 8 -15 24 -15 36 0 11 -7 23 -15 26 -8
4 -15 14 -15 24 0 10 -7 23 -15 30 -8 7 -15 20 -15 30 0 10 -7 23 -15 30 -8 7
-15 20 -15 30 0 10 -7 20 -15 24 -8 3 -15 14 -15 25 0 11 -6 24 -12 28 -15 9
-33 37 -48 71 -5 12 -14 22 -20 22 -5 0 -10 9 -10 20 0 11 -7 23 -15 26 -8 4
-15 11 -15 16 0 6 -13 27 -30 48 -16 21 -30 41 -30 44 0 4 -13 20 -30 36 -16
16 -30 33 -30 37 0 5 -13 23 -30 41 -16 18 -30 36 -30 40 0 11 -396 402 -407
402 -6 0 -13 7 -17 15 -3 8 -12 15 -21 15 -8 0 -15 4 -15 8 0 10 -96 82 -109
82 -5 0 -11 7 -15 15 -3 8 -12 15 -21 15 -8 0 -15 5 -15 10 0 6 -10 15 -22 20
-34 15 -62 33 -71 48 -4 6 -17 12 -27 12 -11 0 -20 5 -20 10 0 6 -11 15 -25
20 -14 5 -25 14 -25 20 0 5 -11 10 -24 10 -13 0 -26 7 -30 15 -3 8 -14 15 -25
15 -10 0 -21 7 -25 15 -3 8 -14 15 -24 15 -11 0 -25 7 -32 15 -7 8 -20 15 -30
15 -10 0 -23 7 -30 15 -7 8 -20 15 -30 15 -10 0 -23 7 -30 15 -7 8 -23 15 -37
15 -13 0 -26 7 -29 15 -4 8 -18 15 -34 15 -16 0 -30 7 -34 15 -3 9 -18 15 -40
15 -21 0 -36 6 -40 15 -3 9 -18 15 -34 15 -16 0 -35 7 -42 15 -7 8 -27 15 -45
15 -20 0 -35 6 -39 15 -3 10 -19 15 -44 15 -23 0 -45 6 -52 15 -7 9 -29 15
-55 15 -26 0 -48 6 -55 15 -8 10 -30 15 -65 15 -35 0 -57 5 -65 15 -9 10 -32
15 -75 15 -43 0 -66 5 -75 15 -10 11 -36 15 -114 15 -69 1 -109 5 -126 15 -20
11 -80 14 -300 14 -220 0 -280 -3 -300 -14z m469 -48 c31 3 50 -8 51 -28 0 -3
-58 -5 -128 -5 -124 0 -128 0 -110 18 14 14 30 17 72 15 30 -2 55 -1 54 2 -2
20 4 24 15 11 8 -10 24 -15 46 -13z m-257 -11 c14 -20 8 -23 -60 -23 -64 0
-68 2 -53 18 18 19 101 23 113 5z m437 -15 c10 -6 10 -10 1 -16 -15 -10 -62 3
-55 15 8 12 35 13 54 1z m-845 -17 c20 -20 21 -50 1 -58 -19 -7 -38 28 -30 54
8 24 9 24 29 4z m997 -19 c0 -5 -7 -12 -16 -13 -23 -5 -47 6 -40 19 8 13 56 8
56 -6z m-1111 -41 c11 -27 -19 -68 -43 -58 -23 8 -33 50 -16 70 17 20 50 14
59 -12z m1278 -11 c4 -24 -11 -29 -56 -17 -22 6 -22 7 -5 26 22 25 57 20 61
-9z m146 -18 c28 -26 15 -35 -22 -16 -9 5 -26 12 -37 16 -16 5 -17 8 -5 15 23
15 35 12 64 -15z m-1327 -7 c2 -16 0 -19 -6 -9 -5 7 -15 17 -22 22 -11 7 -9 9
6 9 14 0 21 -7 22 -22z m1464 -51 c-17 -17 -56 -3 -59 21 -3 22 -3 22 32 5 21
-10 33 -20 27 -26z m-1447 17 c21 -8 20 -30 -2 -52 -18 -18 -19 -18 -19 20 0
21 1 38 3 38 1 0 9 -3 18 -6z m-120 -49 c14 -14 14 -19 -1 -49 -15 -32 -17
-33 -34 -18 -24 21 -24 58 -1 71 9 6 18 11 19 11 1 0 8 -7 17 -15z m1772 -18
c6 2 17 -3 24 -12 7 -8 18 -15 26 -15 24 0 64 -23 64 -37 0 -21 -31 -15 -55
11 -16 17 -29 23 -45 19 -12 -3 -31 -1 -43 5 -12 5 -30 13 -39 16 -10 3 -18
15 -18 26 0 20 0 20 38 2 20 -11 42 -17 48 -15z m-1633 -94 c-4 -23 -11 -33
-23 -33 -23 0 -35 33 -21 59 6 11 8 27 5 36 -5 12 1 9 18 -7 20 -18 24 -30 21
-55z m262 67 c274 8 535 8 540 0 14 -23 -61 -38 -176 -34 -143 5 -136 5 -309
0 -121 -3 -148 -1 -163 12 -24 21 -3 34 43 27 19 -3 49 -5 65 -5z m1205 -50
c0 -11 -2 -20 -3 -20 -2 0 -12 9 -22 20 -18 19 -17 20 3 20 15 0 22 -6 22 -20z
m-1590 -58 c0 -22 -30 -52 -52 -52 -14 0 -18 8 -18 34 0 19 7 42 16 51 15 15
18 15 35 -1 11 -9 19 -24 19 -32z m1984 33 c3 -8 16 -15 29 -15 13 0 32 -9 42
-20 18 -20 17 -20 -16 -20 -25 1 -43 10 -69 35 -30 31 -32 35 -13 35 11 0 23
-7 27 -15z m-724 -36 c0 -23 -32 -26 -50 -5 -6 8 -21 17 -33 19 -12 2 2 4 31
4 45 1 52 -2 52 -18z m510 1 c0 -14 -7 -20 -22 -20 -20 0 -21 1 -3 20 10 11
20 20 22 20 1 0 3 -9 3 -20z m-190 -60 c13 0 20 -5 17 -12 -4 -13 -93 -16
-105 -4 -12 12 32 34 50 25 9 -5 26 -9 38 -9z m320 0 c-12 -12 -33 -20 -52
-20 -31 0 -31 0 -12 19 11 11 33 20 52 20 32 1 32 1 12 -19z m278 13 c-10 -2
-28 -2 -40 0 -13 2 -5 4 17 4 22 1 32 -1 23 -4z m107 -33 c4 -6 -5 -10 -19
-10 -14 0 -26 5 -26 10 0 6 9 10 19 10 11 0 23 -4 26 -10z m-560 -40 c18 -20
17 -20 -13 -20 -19 0 -40 8 -52 20 -20 20 -20 20 13 20 21 0 41 -8 52 -20z
m255 0 c0 -13 -7 -20 -20 -20 -13 0 -20 7 -20 20 0 13 7 20 20 20 13 0 20 -7
20 -20z m210 17 c0 -2 -9 -12 -20 -22 -19 -18 -20 -17 -20 3 0 15 6 22 20 22
11 0 20 -2 20 -3z m-355 -67 c3 -5 15 -10 25 -10 11 0 24 -9 30 -20 6 -11 19
-20 30 -20 29 0 70 -21 70 -37 0 -21 -48 -16 -62 7 -7 11 -19 20 -26 20 -7 0
-30 9 -51 20 -21 10 -41 17 -44 14 -3 -3 -15 4 -26 15 l-21 21 34 0 c19 0 38
-4 41 -10z m230 -20 c3 -5 -3 -10 -15 -10 -12 0 -18 5 -15 10 3 6 10 10 15 10
5 0 12 -4 15 -10z m402 -48 c15 -16 40 -32 56 -35 18 -5 27 -14 27 -27 0 -19
-1 -19 -35 -3 -19 9 -35 20 -35 25 0 5 -20 18 -45 30 -44 21 -51 38 -15 38 10
0 31 -13 47 -28z m-419 -51 c9 -5 25 -12 35 -15 10 -3 15 -10 12 -16 -11 -18
-47 -10 -71 15 -24 26 -12 35 24 16z m577 -63 c14 -21 14 -23 0 -26 -19 -4
-57 27 -49 39 9 16 33 9 49 -13z m-444 -23 c0 -5 -7 -12 -16 -13 -23 -5 -47 6
-40 19 8 13 56 8 56 -6z m503 -21 c9 -3 16 -15 16 -25 0 -18 -1 -19 -25 -3
-38 25 -31 44 9 28z m-82 -76 c-9 -9 -15 -9 -24 0 -9 9 -7 12 12 12 19 0 21
-3 12 -12z m176 -5 c5 -17 -26 -29 -40 -15 -6 6 -7 15 -3 22 9 14 37 9 43 -7z
m-458 -43 c0 -5 -7 -10 -15 -10 -8 0 -15 5 -15 10 0 6 7 10 15 10 8 0 15 -4
15 -10z m510 -11 c0 -5 -7 -9 -15 -9 -15 0 -20 12 -9 23 8 8 24 -1 24 -14z
m-440 -19 c12 -8 9 -10 -13 -10 -16 0 -26 4 -22 10 8 12 16 12 35 0z m73 -45
c9 -23 -9 -26 -28 -5 -17 19 -17 20 2 20 12 0 23 -7 26 -15z m297 -5 c0 -13
-7 -20 -20 -20 -13 0 -20 7 -20 20 0 13 7 20 20 20 13 0 20 -7 20 -20z m-225
-60 c18 -19 17 -20 -3 -20 -15 0 -22 6 -22 20 0 11 2 20 3 20 2 0 12 -9 22
-20z m130 -10 c3 -5 -3 -10 -15 -10 -12 0 -18 5 -15 10 3 6 10 10 15 10 5 0
12 -4 15 -10z m-53 -60 c6 -39 1 -43 -23 -19 -24 24 -24 49 0 49 13 0 20 -9
23 -30z m38 -65 c0 -8 -4 -15 -9 -15 -5 0 -11 7 -15 15 -3 9 0 15 9 15 8 0 15
-7 15 -15z m440 -17 c0 -16 -3 -19 -11 -11 -6 6 -8 16 -5 22 11 17 16 13 16
-11z m-375 -28 c18 -19 17 -20 -3 -20 -15 0 -22 6 -22 20 0 11 2 20 3 20 2 0
12 -9 22 -20z m409 -9 c8 -13 -4 -42 -15 -35 -12 7 -12 44 0 44 6 0 12 -4 15
-9z m-332 -93 c-9 -9 -12 -7 -12 12 0 19 3 21 12 12 9 -9 9 -15 0 -24z m133
12 c18 -19 17 -20 -3 -20 -15 0 -22 6 -22 20 0 11 2 20 3 20 2 0 12 -9 22 -20z
m254 -31 c3 -24 3 -24 -18 -5 -11 10 -18 23 -15 28 10 16 29 2 33 -23z m61
-93 c0 -12 13 -33 28 -46 30 -26 62 -83 62 -108 0 -11 -11 -5 -35 18 -20 20
-35 44 -35 57 0 13 -7 26 -15 29 -8 4 -15 17 -15 30 0 14 -7 27 -15 30 -8 4
-13 10 -10 15 10 15 35 -3 35 -25z m-115 -33 c-7 -17 -8 -16 -17 4 -6 12 -7
30 -3 40 7 17 8 16 17 -4 6 -12 7 -30 3 -40z m-187 -26 c-3 -14 -6 -14 -27 2
-17 13 -22 24 -17 37 6 17 8 17 27 -3 12 -11 19 -28 17 -36z m107 33 c18 -19
17 -20 -3 -20 -15 0 -22 6 -22 20 0 11 2 20 3 20 2 0 12 -9 22 -20z m119 -36
c11 -4 16 -19 16 -42 0 -35 0 -36 -19 -16 -22 25 -36 64 -22 64 5 0 16 -3 25
-6z m-166 -51 c-4 -36 -38 -45 -38 -10 0 27 7 37 27 37 10 0 13 -9 11 -27z
m62 -110 c0 -32 0 -33 -19 -14 -39 39 -39 100 0 65 11 -10 19 -30 19 -51z m57
-15 c-2 -13 -4 -5 -4 17 -1 22 1 32 4 23 2 -10 2 -28 0 -40z m123 17 c0 -33
-1 -34 -19 -19 -17 15 -17 18 -2 34 22 24 21 25 21 -15z m139 -33 c-20 -8 -39
8 -39 31 0 38 13 40 31 5 10 -18 13 -35 8 -36z m-279 -46 c0 -41 -15 -56 -24
-23 -10 37 -7 57 9 57 10 0 15 -10 15 -34z m80 -59 c0 -19 -1 -20 -20 -2 -11
10 -20 27 -20 38 0 19 1 20 20 2 11 -10 20 -27 20 -38z m117 1 c-2 -13 -4 -5
-4 17 -1 22 1 32 4 23 2 -10 2 -28 0 -40z m142 -16 c-20 -8 -39 8 -39 31 0 38
13 40 31 5 10 -18 13 -35 8 -36z m-161 -251 c2 -13 1 -30 -3 -39 -5 -14 -10
-10 -25 18 -11 19 -19 43 -20 54 0 17 2 17 23 4 12 -9 23 -25 25 -37z m262 -3
c0 -11 -7 -18 -20 -18 -16 0 -20 7 -20 37 0 35 0 36 20 18 11 -10 20 -26 20
-37z m-195 -149 c-4 -11 -1 -26 5 -34 7 -8 10 -24 7 -36 -4 -15 0 -23 13 -26
15 -4 18 -14 17 -53 -1 -46 -1 -47 -20 -29 -14 12 -18 26 -14 45 3 17 -1 32
-12 43 -10 10 -18 24 -19 32 -7 53 -15 90 -23 95 -5 3 -9 15 -9 27 0 19 3 18
30 -12 21 -23 29 -39 25 -52z m252 -1 c-1 -46 -2 -73 -5 -61 -2 12 -10 27 -18
33 -18 16 -18 44 1 60 9 7 14 19 11 26 -4 10 1 24 9 24 1 0 2 -37 2 -82z
m-117 22 c0 -16 -9 -39 -19 -49 -20 -20 -20 -19 -19 30 0 41 3 49 19 49 14 0
19 -7 19 -30z m60 -153 c0 -2 -9 -12 -20 -22 -19 -18 -20 -17 -20 3 0 15 6 22
20 22 11 0 20 -2 20 -3z m100 -42 c0 -8 -4 -17 -10 -20 -6 -4 -10 5 -10 20 0
15 4 24 10 20 6 -3 10 -12 10 -20z m-116 -11 c23 -9 21 -67 -4 -89 -19 -17
-19 -16 -18 39 1 31 3 56 4 56 1 0 9 -3 18 -6z m-118 -32 c6 -4 12 -29 12 -56
1 -47 1 -48 -18 -31 -14 13 -19 29 -18 56 1 40 5 44 24 31z m250 -49 c1 -49 1
-50 -18 -31 -16 16 -20 47 -9 86 1 2 7 2 14 0 7 -3 12 -24 13 -55z m4 -88 c0
-19 -5 -25 -22 -25 -21 1 -22 2 -5 14 9 7 17 18 17 25 0 6 2 11 5 11 3 0 5
-11 5 -25z m57 -230 c0 -121 -1 -125 -18 -109 -16 14 -18 29 -15 88 2 39 -1
80 -7 90 -7 15 -4 23 14 37 13 10 24 19 25 19 0 0 1 -56 1 -125z m-251 67 c7
-4 11 -38 11 -85 -1 -77 -1 -77 -20 -58 -14 14 -19 31 -18 63 1 23 2 53 3 66
0 23 6 26 24 14z m134 -56 c0 -13 -3 -13 -20 4 -11 11 -20 30 -20 41 0 21 1
21 20 -4 11 -14 20 -32 20 -41z m-109 -355 c-16 -16 -21 -18 -21 -6 0 20 34
55 38 38 2 -6 -6 -21 -17 -32z m-14 -283 c0 -51 3 -100 7 -109 5 -11 0 -21
-16 -31 l-23 -15 -3 103 c-2 86 1 107 15 124 10 11 18 20 19 20 1 0 2 -42 1
-92z m121 -61 c0 -34 2 -71 3 -82 3 -15 -1 -20 -16 -20 -19 0 -20 7 -21 98 -1
93 -1 97 17 81 13 -12 18 -31 17 -77z m120 36 c1 -21 2 -57 3 -79 1 -30 -4
-47 -19 -62 l-20 -20 1 92 c0 82 6 105 28 106 4 0 7 -17 7 -37z m-61 -362 c1
-56 -2 -72 -17 -86 -19 -17 -19 -15 -18 61 1 69 9 93 28 94 3 0 6 -31 7 -69z
m-117 26 c0 -2 -9 -12 -20 -22 -19 -18 -20 -17 -20 3 0 15 6 22 20 22 11 0 20
-2 20 -3z m-152 -86 c1 -26 -4 -43 -17 -55 -17 -15 -18 -15 -19 15 -1 24 21
74 34 79 0 0 1 -17 2 -39z m136 33 c22 -8 20 -37 -4 -59 -20 -18 -20 -17 -18
23 1 23 2 42 4 42 1 0 9 -3 18 -6z m-180 -175 c-16 -17 -19 -18 -27 -4 -11 21
0 53 21 57 24 5 28 -29 6 -53z m254 -47 c0 -37 -3 -60 -9 -56 -5 3 -7 10 -3
15 3 6 -1 18 -9 27 -9 10 -15 36 -15 65 0 47 0 48 17 30 13 -13 18 -36 19 -81z
m-323 -139 c-5 -10 -7 -25 -6 -33 2 -12 -2 -11 -18 4 -11 10 -19 22 -16 26 2
4 10 20 16 36 11 29 11 29 21 7 6 -12 7 -30 3 -40z m112 5 c-2 -13 -4 -5 -4
17 -1 22 1 32 4 23 2 -10 2 -28 0 -40z m120 0 c-2 -13 -4 -5 -4 17 -1 22 1 32
4 23 2 -10 2 -28 0 -40z m-297 -71 c0 -2 -9 -12 -20 -22 -19 -18 -20 -17 -20
3 0 15 6 22 20 22 11 0 20 -2 20 -3z m240 -190 c0 -13 -9 -32 -20 -42 -18 -17
-20 -17 -26 -1 -4 10 -2 28 4 42 15 31 42 32 42 1z m-153 -39 c-2 -13 -4 -5
-4 17 -1 22 1 32 4 23 2 -10 2 -28 0 -40z m-256 -117 c-18 -18 -21 -19 -21 -4
0 9 8 25 18 36 14 16 17 17 20 4 2 -9 -6 -25 -17 -36z m199 29 c0 -14 -7 -20
-22 -20 -20 0 -21 1 -3 20 10 11 20 20 22 20 1 0 3 -9 3 -20z m137 2 c-10 -10
-17 -26 -17 -34 0 -9 -7 -21 -15 -28 -8 -7 -15 -20 -15 -30 0 -10 -7 -20 -15
-24 -8 -3 -15 -17 -15 -31 0 -19 -5 -25 -22 -25 -20 0 -20 1 -5 18 10 10 17
26 17 34 0 9 7 21 15 28 8 7 15 20 15 30 0 10 7 23 15 30 8 7 15 21 15 31 0
13 7 19 22 19 20 0 20 -1 5 -18z m-387 -123 c-13 -29 -40 -40 -40 -15 0 7 10
26 22 41 26 33 36 18 18 -26z m190 -14 c0 -28 -4 -35 -20 -35 -25 0 -26 24 -2
49 23 26 22 26 22 -14z m-262 -67 c-2 -13 -7 -23 -13 -23 -5 0 -11 10 -13 23
-2 15 2 22 13 22 11 0 15 -7 13 -22z m327 -5 c-4 -10 -7 -26 -7 -35 1 -21 -14
-32 -28 -23 -8 5 -7 12 2 22 7 9 12 24 10 35 -2 11 3 18 13 18 12 0 15 -5 10
-17z m-273 -75 c-9 -9 -12 -7 -12 12 0 19 3 21 12 12 9 -9 9 -15 0 -24z m182
-28 c13 0 27 -7 30 -16 10 -26 -3 -54 -25 -54 -14 0 -19 7 -19 30 0 20 -5 30
-15 30 -9 0 -15 9 -15 23 1 20 2 20 11 5 5 -10 21 -18 33 -18z m-350 -51 c-17
-18 -18 -19 -27 -3 -8 13 -4 22 14 37 22 18 24 18 27 2 2 -9 -4 -25 -14 -36z
m256 -12 c0 -2 -9 -12 -20 -22 -19 -18 -20 -17 -20 3 0 15 6 22 20 22 11 0 20
-2 20 -3z m70 -58 c0 -10 -7 -19 -15 -19 -15 0 -21 31 -9 43 11 10 24 -3 24
-24z m-68 -40 c20 -17 26 -29 19 -34 -17 -10 -61 36 -60 65 0 15 3 19 6 10 3
-8 19 -27 35 -41z m-268 25 c9 -24 7 -64 -3 -64 -28 0 -41 14 -41 46 0 27 4
34 19 34 10 0 22 -7 25 -16z m36 -190 c0 -8 -7 -14 -15 -14 -17 0 -18 2 -9 24
7 18 24 12 24 -10z m124 -5 c-8 -14 -34 -11 -34 4 0 8 3 17 7 20 9 9 34 -13
27 -24z m-259 1 c3 -5 -3 -10 -15 -10 -12 0 -18 5 -15 10 3 6 10 10 15 10 5 0
12 -4 15 -10z m-45 -35 c0 -8 -4 -15 -10 -15 -5 0 -10 7 -10 15 0 8 5 15 10
15 6 0 10 -7 10 -15z m228 -30 c-23 -25 -34 -31 -36 -21 -4 19 28 54 51 55 15
1 12 -6 -15 -34z m-124 -120 c-36 -36 -73 -65 -82 -65 -22 0 107 127 130 129
10 1 -9 -25 -48 -64z m-104 -90 c-7 -8 -16 -15 -21 -15 -5 0 -9 7 -9 15 0 9 9
15 21 15 18 0 19 -2 9 -15z m-43 -77 c-2 -13 -4 -5 -4 17 -1 22 1 32 4 23 2
-10 2 -28 0 -40z" fill="#949494" class="color000 svgShape"></path><path d="M2940 5695c-9-11-34-15-97-15-65 0-85-3-89-15-5-11-22-15-65-15-44 0-61-4-65-15-4-10-21-15-54-15-89 0-80 215-80-2003l0-1967 1263 0 1263 0 61 65c34 36 64 72 67 80 3 8 10 15 16 15 5 0 10 6 10 13 0 6 14 25 30 41 17 16 30 35 30 43 0 7 5 13 10 13 6 0 13 8 17 18 3 9 19 33 35 53 15 20 28 44 28 53 0 9 5 16 10 16 6 0 15 10 21 23 15 33 35 67 48 80 6 6 11 19 11 29 0 10 7 21 15 24 8 4 15 17 15 30 0 14 7 27 15 30 8 4 15 18 15 34 0 16 7 30 15 34 9 3 15 18 15 35 0 16 6 31 15 35 9 3 15 18 15 34 0 16 7 35 15 42 8 7 15 27 15 45 0 20 6 35 15 39 10 4 15 19 15 49 0 27 6 49 15 57 9 8 15 30 15 60 0 30 6 52 15 60 11 9 15 32 15 80 0 48 4 71 15 80 13 11 15 62 15 350 0 288-2 339-15 350-11 9-15 32-15 81 0 47-5 72-15 83-9 9-15 33-15 64 0 32-5 54-15 62-9 7-15 29-15 52 0 25-5 41-15 44-10 4-15 20-15 44 0 24-5 40-15 44-9 3-15 18-15 34 0 16-7 35-15 42-8 7-15 23-15 35 0 12-7 28-15 35-8 7-15 23-15 35 0 13-7 25-15 29-8 3-15 16-15 30 0 13-7 26-15 30-8 3-15 14-15 24 0 11-7 25-15 32-8 7-15 21-15 32 0 10-7 21-15 24-8 4-15 14-15 25 0 10-6 22-12 26-14 9-33 36-47 68-5 11-20 32-34 47-14 15-34 42-44 59-10 18-29 44-42 58-13 14-53 60-90 100-89 101-122 134-216 215-44 38-81 73-83 78-2 4-8 8-14 8-5 0-35 19-66 43-31 24-65 46-74 50-10 3-18 11-18 17 0 5-6 10-14 10-7 0-19 7-26 15-7 8-20 15-30 15-10 0-20 7-24 15-3 8-14 15-25 15-10 0-21 7-25 15-3 8-14 15-24 15-11 0-25 7-32 15-7 8-20 15-30 15-10 0-23 7-30 15-7 8-20 15-30 15-10 0-20 7-24 15-3 9-18 15-36 15-18 0-33 6-36 15-4 8-18 15-34 15-15 0-33 7-40 15-7 8-27 15-45 15-20 0-35 6-39 15-3 9-18 15-39 15-19 0-40 7-47 15-7 9-29 15-55 15-26 0-48 6-55 15-8 10-30 15-65 15-35 0-57 5-65 15-9 11-34 15-95 15-61 0-86 4-95 15-11 13-57 15-305 15-248 0-294-2-305-15zm349-94c19-19 19-20-28-18-44 1-46 2-32 18 21 23 37 23 60 0zm211-5c0-8-11-13-24-13-22 0-23 1-8 18 16 19 32 17 32-5zm-601-9c8 0 23-9 33-19 17-17 17-18-15-18-17 0-45 0-62 0-16 0-39 0-50 1-11 1-27-1-35-2-9-3-16 5-18 20-3 22-1 23 30 19 18-3 42-2 53 3 11 4 27 5 35 2 8-3 21-6 29-6zm129-4c-10-2-28-2-40 0-13 2-5 4 17 4 22 1 32-1 23-4zm655-7c10-5 23-4 31 3 10 8 17 6 30-8 16-17 13-18-75-18-73 0-95 3-109 17-16 16-13 17 44 15 34 0 69-5 79-9zm-1039-61c-3-7-11-15-17-18-18-7-16-3769 1-3790 10-12 9-16-4-21-8-3-21-6-28-6-10 0-12 407-11 1903 0 1124-3 1910-8 1921-7 15-4 23 14 37 21 16 26 16 41 2 9-8 14-21 12-28zm1333 19c30-8 19-24-15-24-15 0-34-5-42-10-10-6-20-4-33 8-18 16-18 17 5 23 31 9 58 10 85 3zm163-44c-19-13-30-13-30 0 0 6 10 10 23 10 18 0 19-2 7-10zm238-147c-10-2-28-2-40 0-13 2-5 4 17 4 22 1 32-1 23-4zm120-60c-10-2-28-2-40 0-13 2-5 4 17 4 22 1 32-1 23-4zm-108-75c0-19-1-20-17-6-10 9-27 18-38 21-11 3-4 5 18 6 32 1 37-2 37-21zm225 2c18-19 17-20-2-20-11 0-28 9-38 20-18 19-17 20 2 20 11 0 28-9 38-20zm-109-48c-5-8-66-4-66 4 0 2 16 4 36 4 19 0 33-4 30-8zm94-72c0-11-2-20-3-20-2 0-12 9-22 20-18 19-17 20 3 20 15 0 22-6 22-20zm180 0c0-13-7-20-20-20-13 0-20 7-20 20 0 13 7 20 20 20 13 0 20-7 20-20zm90-213c0-19-1-19-20-2-21 19-18 37 5 28 8-3 15-14 15-26zm200-61c7-13 10-30 8-36-6-18-68 47-68 71 0 18 2 18 23 4 13-8 29-26 37-39zm-140 4c0-13-7-20-20-20-13 0-20 7-20 20 0 13 7 20 20 20 13 0 20-7 20-20zm70-78c0-28-11-34-31-16-21 19-16 34 12 34 12 0 19-7 19-18zm138-10c3-17-2-22-17-22-14 0-21 6-21 18 0 38 33 41 38 4zm-268-2c0-11-2-20-3-20-2 0-12 9-22 20-18 19-17 20 3 20 15 0 22-6 22-20zm424-282c-13-20-25 7-20 45 6 58 7 58 17 8 5-24 6-48 3-53zm62-73c3-14 3-32 0-41-11-28-46 12-46 53 0 31 2 33 20 23 11-6 23-22 26-35zm-69-157c-2-13-4-5-4 17-1 22 1 32 4 23 2-10 2-28 0-40zm129 26c9-36-8-49-35-27-15 12-20 24-16 36 11 27 44 21 51-9zm45-137c18-5 26-36 12-50-15-15-43 27-42 62 1 21 3 27 6 15 2-12 13-24 24-27zm-106 1c-4-13-7-44-6-71 1-47 1-47-18-28-22 22-27 101-7 113 24 16 39 9 31-14zm55-201c0-2-9-12-20-22-19-18-20-17-20 3 0 15 6 22 20 22 11 0 20-2 20-3zm-123-109c-2-13-4-5-4 17-1 22 1 32 4 23 2-10 2-28 0-40zm273-30c0-23-36-24-44-2-8 21-8 69 1 78 9 8 42-52 43-76zm30-150c0-17-1-17-20 2-11 11-20 27-20 37 0 14 2 14 20-2 11-10 20-26 20-37zm-2-70c2-40 2-41-18-23-18 16-18 18-2 41 9 13 17 24 18 24 0 0 1-19 2-42zm12-152c0-32-11-39-32-19-17 15-17 18-2 34 20 22 34 16 34-15zm-252-71c0-25-1-25-19-9-19 18-17 34 5 34 8 0 14-11 14-25zm240-149c0-22-2-23-19-8-19 16-17 32 5 32 8 0 14-11 14-24zm-1-75c0-36-1-37-18-23-16 14-17 17-1 38 9 13 17 24 18 24 0 0 1-17 1-39zm-29-255c4-20-26-58-39-50-13 8-11 48 3 62 16 16 32 10 36-12zm-148-31c0-18-5-25-20-25-35 0-24 45 13 49 4 1 7-10 7-24zm120-88c0-13-9-32-20-42-20-18-20-17-20 18 0 31 9 44 33 46 4 1 7-10 7-22zm-39-120c-13-13-31 1-31 25 0 21 1 21 20 3 13-12 17-22 11-28zm-143-53c0-63 0-65-18-49-26 24-26 115 0 115 15 0 17-10 18-66zm132-1c0-6-7-19-16-27-9-9-19-29-24-44-7-22-8-18-8 23 0 54 24 97 40 73 4-7 8-18 8-25zm-72-160c0-29-6-55-15-65-34-37-46 14-13 52 11 13 20 31 20 42 0 10 2 18 4 18 2 0 4-21 4-47zm-58-140c0-36 0-36-20-18-19 17-19 19-4 37 23 24 24 24 24-19zm-54-89c-3-9-6-29-6-45 0-16-4-29-9-29-5 0-9 20-9 45 1 32 5 45 16 45 9 0 12-6 8-16zm-96-196c0-16-3-19-11-11-6 6-8 16-5 22 11 17 16 13 16-11zm-125-8c3-5-3-10-15-10-12 0-18 5-15 10 3 6 10 10 15 10 5 0 12-4 15-10zm-205-80c0-13-7-20-20-20-13 0-20 7-20 20 0 13 7 20 20 20 13 0 20-7 20-20zm270 17c0-1-9-10-20-20-19-16-20-16-20 3 0 13 7 20 20 20 11 0 20-1 20-3zm-210-77c0-14-7-20-22-20-20 0-21 1-3 20 10 11 20 20 22 20 1 0 3-9 3-20zm144 6c-9-24-34-28-34-6 0 13 7 20 20 20 13 0 17-5 14-14zm-71-95c-10-11-24-26-31-35-6-8-19-13-27-9-12 4-6 15 27 49 29 29 44 39 46 30 2-8-5-24-15-35zm-133-11c0-25-4-30-22-30-21 1-21 2-5 11 9 5 17 19 17 29 0 11 2 20 5 20 3 0 5-13 5-30zm-2123-32c-16-10-29 5-21 26 6 15 7 15 19-1 10-13 10-20 2-25zm120 0c-17-10-26 0-20 22 5 19 6 19 18 3 10-13 10-20 2-25zM348 4731c-10-20-18-42-18-48 0-6-7-16-15-23-8-7-15-23-15-35 0-12-7-28-15-35-8-7-15-25-15-40 0-16-7-30-15-34-9-3-15-18-15-35 0-16-6-31-15-35-9-3-15-18-15-40 0-21-6-36-15-40-9-3-15-18-15-39 0-19-7-40-15-47-8-7-15-29-15-50 0-21-7-43-15-50-9-8-15-30-15-60 0-33-5-50-15-54-11-4-15-21-15-61 0-37-5-62-15-71-10-11-15-37-15-82-1-43-6-74-15-86-12-16-15-58-15-211 0-149-3-195-14-211-16-23-15-58 2-91 8-14 12-85 12-205 0-147 3-188 15-204 9-12 14-44 15-90 0-51 4-75 15-84 10-8 15-30 15-65 0-35 5-57 15-65 10-8 15-30 15-62 0-34 4-50 15-54 10-4 15-20 15-44 0-21 7-43 15-50 8-7 15-27 15-45 0-18 7-38 15-45 8-7 15-26 15-42 0-16 6-31 15-34 9-4 15-19 15-39 0-20 6-35 15-39 8-3 15-16 15-30 0-14 7-31 15-40 8-8 15-26 15-39 0-14 7-27 15-31 8-3 15-14 15-24 0-10 9-35 20-57l20-39 0 1472c0 810-1 1472-2 1472-2 0-11-18-20-39zm-68-363c0-19-2-20-10-8-13 19-13 30 0 30 6 0 10-10 10-22zm-10-53c12-15 10-59-10-190-6-38-11-91-12-116-1-45-1-46-19-28-18 18-19 64-4 184 3 22 8 68 11 103 7 64 13 73 34 47zm9-441c0-16-1-103-1-194-4-903-6-1017-17-1055-15-46-15-47 0-140 24-162 21-279-7-217-26 58-50 333-31 367 14 26 21 225 16 485 0 14 2 46 4 73 3 26 1 50-4 53-11 6-12 51-1 58 4 2 6 55 4 118-4 142-4 139-3 283 0 66 0 135 0 153 0 17 1 45 2 61l2 29 18-22c10-13 18-36 18-52zm-120-36c4-193-3-331-16-335-16-6-24 12-24 55 1 20 2 93 2 162 1 93 5 129 16 141 7 9 13 20 12 25-2 12 0 24 5 24 2 0 4-33 5-72zm-24-518c-4-11-11-18-16-15-11 7-12 48-2 59 11 11 25-23 18-44zm11-197c4-10 9-101 10-203 2-102 4-193 6-203 2-11-6-25-19-34l-22-15 2 94c0 51-3 157-7 236-8 124-7 142 7 142 8 0 18-8 23-17z" fill="#949494" class="color000 svgShape"></path></g></svg></g></svg>