<?xml version="1.0" standalone="no"?>
<!DOCTYPE svg PUBLIC "-//W3C//DTD SVG 20010904//EN"
 "http://www.w3.org/TR/2001/REC-SVG-20010904/DTD/svg10.dtd">
<svg version="1.0" xmlns="http://www.w3.org/2000/svg"
 width="297.000000pt" height="263.000000pt" viewBox="0 0 297.000000 263.000000"
 preserveAspectRatio="xMidYMid meet">
<metadata>
Created by potrace 1.10, written by Peter Selinger 2001-2011
</metadata>
<g transform="translate(0.000000,263.000000) scale(0.100000,-0.100000)"
fill="#efefef" stroke="none">
<path d="M1290 2336 c-114 -22 -230 -63 -230 -82 0 -19 32 -84 42 -84 4 0 40
11 80 24 110 35 211 49 303 42 351 -29 628 -254 717 -585 28 -103 30 -287 4
-386 -76 -290 -280 -496 -576 -581 -91 -26 -289 -26 -380 0 -245 70 -423 219
-524 438 -99 213 -99 428 -2 660 6 13 -3 21 -40 37 -25 12 -48 21 -50 21 -9 0
-48 -105 -67 -180 -29 -117 -28 -312 1 -422 92 -341 343 -587 678 -664 166
-38 397 -17 548 50 200 89 377 264 465 459 101 226 101 508 0 734 -63 141
-173 274 -299 364 -121 86 -234 131 -389 154 -112 17 -191 17 -281 1z"/>
<path d="M902 2169 c-23 -17 -42 -35 -42 -40 0 -5 15 -25 33 -44 l32 -36 38
27 c20 15 37 31 37 36 0 7 -50 88 -54 88 -1 0 -21 -14 -44 -31z"/>
<path d="M730 2000 c-30 -37 -31 -42 -17 -58 9 -9 29 -25 45 -34 l30 -18 27
41 28 40 -33 34 c-19 19 -37 35 -41 35 -4 0 -22 -18 -39 -40z"/>
<path d="M1190 1450 c0 -238 4 -430 9 -428 21 8 710 424 710 428 0 5 -690 421
-710 428 -5 2 -9 -168 -9 -428z m328 110 c94 -56 172 -106 172 -110 0 -7 -340
-214 -372 -226 -17 -6 -18 9 -18 231 l0 237 23 -14 c12 -8 100 -61 195 -118z"/>
</g>
</svg>
