<?xml version="1.0" standalone="no"?>
<!DOCTYPE svg PUBLIC "-//W3C//DTD SVG 20010904//EN"
 "http://www.w3.org/TR/2001/REC-SVG-20010904/DTD/svg10.dtd">
<svg version="1.0" xmlns="http://www.w3.org/2000/svg"
 width="300.000000pt" height="300.000000pt" viewBox="0 0 300.000000 300.000000"
 preserveAspectRatio="xMidYMid meet">
<metadata>
Created by potrace 1.10, written by Peter Selinger 2001-2011
</metadata>
<g transform="translate(0.000000,300.000000) scale(0.100000,-0.100000)"
fill="#ffffff" stroke="none">
<path d="M1445 2849 c-136 -73 -308 -203 -449 -339 -170 -165 -278 -308 -385
-513 -57 -111 -93 -219 -116 -355 -28 -165 6 -395 84 -567 122 -268 366 -477
654 -559 99 -29 274 -49 342 -39 41 5 45 4 45 -16 0 -46 -34 -155 -71 -227
-22 -42 -39 -80 -39 -85 0 -38 185 66 351 196 105 82 290 266 362 360 163 211
279 451 308 635 17 108 6 325 -21 425 -45 167 -168 376 -286 485 -198 184
-443 280 -709 280 l-115 0 6 28 c20 89 50 175 80 230 47 84 35 102 -41 61z
m240 -979 c307 -147 313 -576 9 -727 -64 -31 -88 -37 -158 -41 -174 -9 -313
76 -390 237 -28 60 -31 75 -31 166 0 91 3 106 31 165 40 83 87 136 159 179 80
49 135 62 233 56 65 -3 95 -10 147 -35z"/>
</g>
</svg>
