<?xml version="1.0" standalone="no"?>
<!DOCTYPE svg PUBLIC "-//W3C//DTD SVG 20010904//EN"
 "http://www.w3.org/TR/2001/REC-SVG-20010904/DTD/svg10.dtd">
<svg version="1.0" xmlns="http://www.w3.org/2000/svg"
 width="300.000000pt" height="300.000000pt" viewBox="0 0 300.000000 300.000000"
 preserveAspectRatio="xMidYMid meet">
<metadata>
Created by potrace 1.10, written by Peter Selinger 2001-2011
</metadata>
<g transform="translate(0.000000,300.000000) scale(0.100000,-0.100000)"
fill="#ffffff" stroke="none">
<path d="M1216 2432 c-3 -3 -6 -398 -6 -878 l0 -872 48 -16 c151 -48 311 -96
320 -96 8 0 12 210 14 759 3 730 4 760 22 780 23 25 53 27 84 5 45 -31 47 -42
52 -393 l5 -334 55 -19 c40 -14 76 -18 132 -16 67 3 82 7 120 34 54 39 104
119 119 192 15 75 6 291 -15 358 -25 79 -91 170 -160 221 -86 64 -161 99 -316
150 -159 52 -466 134 -474 125z"/>
<path d="M1050 1361 c-92 -29 -577 -209 -630 -235 -81 -39 -140 -94 -140 -129
0 -33 50 -92 99 -116 49 -25 157 -56 266 -77 96 -18 324 -24 408 -10 l47 7 0
95 c0 109 3 107 -92 69 -106 -42 -199 -57 -276 -45 -77 13 -82 15 -82 39 0 23
65 53 262 120 81 27 156 55 167 61 19 10 21 20 21 120 0 117 0 116 -50 101z"/>
<path d="M1995 1274 c-66 -7 -198 -33 -253 -49 l-52 -16 0 -114 c0 -63 4 -115
8 -115 4 0 98 31 207 69 236 82 275 93 330 93 47 0 121 -18 130 -31 19 -32
-29 -55 -407 -190 -109 -39 -214 -77 -233 -85 l-35 -15 0 -110 c0 -61 2 -111
4 -111 18 0 816 290 880 319 202 93 193 210 -21 288 -133 48 -221 64 -373 68
-80 1 -163 1 -185 -1z"/>
</g>
</svg>
