<svg id="SvgjsSvg1038" width="288" height="288" xmlns="http://www.w3.org/2000/svg" version="1.1" xmlns:xlink="http://www.w3.org/1999/xlink" xmlns:svgjs="http://svgjs.com/svgjs"><defs id="SvgjsDefs1039"></defs><g id="SvgjsG1040"><svg xmlns="http://www.w3.org/2000/svg" version="1.0" viewBox="99.5 165.58 104.65 202.42" width="288" height="288"><g fill="#ffffff" transform="matrix(.05 0 0 -.05 0 533)" class="colorfff svgShape"><path d="M2655 7309 c-263 -64 -505 -253 -608 -475 l-57 -124 0 -1380 0 -1380 62 -130 c173 -362 465 -520 960 -520 502 0 822 172 994 534 l64 136 6 826 6 827 -64 125 -63 125 64 88 64 89 -6 320 c-9 389 -49 500 -256 697 -254 243 -743 344 -1166 242z m655 -219 c430 -92 570 -283 570 -784 l0 -266 -360 0 -360 0 0 178 c0 206 -14 228 -144 218 l-86 -6 -10 -300 c-12 -350 -18 -322 52 -277 185 122 719 22 849 -158 l59 -81 0 -763 c0 -640 -5 -781 -32 -872 -161 -549 -1371 -605 -1610 -75 l-48 106 0 1320 0 1320 46 100 c139 301 587 443 1074 340z" fill="#949494" class="color000 svgShape"></path><path d="M3240 5189 c-141 -60 -231 -63 -261 -8 -22 41 -180 41 -225 -1 -12 -10 -23 -961 -14 -1264 0 -29 82 -37 159 -16 l81 22 0 286 c0 317 3 325 128 346 l72 11 0 148 c0 169 -11 158 201 193 l149 25 1 100 c4 220 -63 256 -291 158z" fill="#949494" class="color000 svgShape"></path></g></svg></g></svg>