<?xml version="1.0" standalone="no"?>
<!DOCTYPE svg PUBLIC "-//W3C//DTD SVG 20010904//EN"
 "http://www.w3.org/TR/2001/REC-SVG-20010904/DTD/svg10.dtd">
<svg version="1.0" xmlns="http://www.w3.org/2000/svg"
 width="300.000000pt" height="300.000000pt" viewBox="0 0 300.000000 300.000000"
 preserveAspectRatio="xMidYMid meet">
<metadata>
Created by potrace 1.10, written by Peter Selinger 2001-2011
</metadata>
<g transform="translate(0.000000,300.000000) scale(0.100000,-0.100000)"
fill="#d9292a" stroke="none">
<path d="M969 2940 c-432 -78 -769 -384 -886 -806 -26 -92 -28 -112 -27 -289
0 -163 3 -201 22 -268 55 -200 148 -364 285 -504 138 -142 316 -246 507 -298
118 -33 315 -44 441 -25 166 24 362 105 494 205 l60 45 477 -477 478 -478 64
65 65 65 -474 478 -474 478 55 76 c161 224 232 513 193 789 -62 449 -381 806
-826 926 -61 16 -114 21 -243 24 -91 1 -186 -1 -211 -6z m402 -199 c367 -94
631 -379 690 -745 17 -107 7 -300 -21 -396 -99 -346 -376 -598 -724 -659 -87
-16 -256 -13 -344 5 -96 20 -208 62 -291 111 -79 47 -218 176 -277 258 -254
356 -219 848 83 1165 149 157 320 247 528 280 88 13 268 4 356 -19z"/>
</g>
</svg>
