<svg id="SvgjsSvg1045" width="288" height="288" xmlns="http://www.w3.org/2000/svg" version="1.1" xmlns:xlink="http://www.w3.org/1999/xlink" xmlns:svgjs="http://svgjs.com/svgjs"><defs id="SvgjsDefs1046"></defs><g id="SvgjsG1047"><svg xmlns="http://www.w3.org/2000/svg" width="288" height="288" version="1.0" viewBox="0 0 741 696"><g fill="#ffffff" transform="matrix(.1 0 0 -.1 0 696)" class="colorfff svgShape"><path d="M2815 6899 c-77 -3 -239 -7 -360 -8 -312 -3 -480 -24 -578 -70 -67-32 -101 -68 -110 -116 -3 -17 -20 -73 -38 -125 -66 -194 -167 -497 -189 -565
-12 -38 -26 -79 -30 -90 -5 -11 -18 -54 -31 -95 -12 -41 -28 -89 -35 -107 -8
-17 -14 -40 -14 -50 0 -10 -4 -23 -8 -28 -5 -6 -26 -64 -47 -130 -21 -66 -42
-124 -46 -129 -5 -6 -9 -19 -9 -30 0 -12 -6 -33 -14 -48 -8 -14 -17 -45 -21
-67 -4 -23 -10 -43 -15 -46 -4 -3 -11 -21 -15 -41 -3 -20 -10 -44 -15 -53 -5
-9 -20 -52 -34 -96 -14 -44 -54 -166 -90 -272 -36 -106 -66 -197 -66 -204 0
-6 -6 -25 -14 -42 -7 -18 -78 -228 -156 -467 -79 -239 -149 -449 -156 -467 -8
-17 -14 -38 -14 -47 0 -8 -6 -30 -14 -48 -17 -42 -36 -95 -46 -133 -9 -33 -56
-169 -69 -200 -10 -24 -339 -1007 -351 -1050 -4 -16 -14 -46 -21 -65 -6 -19
-17 -51 -24 -70 -7 -19 -18 -51 -24 -70 -7 -19 -16 -48 -21 -65 -4 -16 -33
-103 -64 -192 -48 -137 -56 -172 -56 -233 0 -103 45 -180 131 -225 30 -16 132
-41 201 -50 42 -5 49 -10 53 -33 28 -133 184 -259 334 -269 64 -5 488 12 603
24 44 4 59 2 62 -8 2 -8 11 -50 21 -94 10 -44 24 -89 31 -100 8 -11 14 -25 14
-32 0 -22 73 -135 122 -189 31 -34 60 -55 81 -60 18 -4 111 -12 207 -18 175
-11 175 -11 180 -36 17 -76 73 -160 122 -185 35 -17 123 -48 173 -60 17 -4
320 -6 675 -5 355 2 956 4 1335 4 663 1 692 2 730 20 62 31 94 57 133 111 49
66 64 93 71 135 l6 35 190 0 c197 1 236 5 295 35 77 39 127 118 202 320 22 58
45 110 51 116 8 8 101 9 312 4 179 -4 312 -2 330 3 115 36 189 97 235 193 16
35 30 71 30 79 0 21 32 35 82 35 84 0 210 52 258 107 42 47 59 89 67 163 5 51
0 75 -36 192 -24 73 -49 148 -57 166 -8 18 -14 40 -14 50 0 9 -7 30 -15 46 -8
15 -15 34 -15 42 0 7 -6 28 -14 46 -8 18 -21 60 -31 93 -9 33 -30 103 -46 155
-76 244 -122 388 -134 420 -7 19 -27 82 -45 140 -18 58 -38 121 -45 140 -7 19
-23 69 -35 110 -13 41 -33 107 -45 145 -13 39 -26 85 -30 102 -3 18 -11 35
-16 38 -5 4 -9 16 -9 28 0 12 -7 35 -15 51 -8 15 -15 35 -15 43 0 8 -6 29 -13
46 -8 18 -22 59 -32 92 -10 33 -23 78 -31 100 -7 22 -22 74 -34 115 -12 41
-26 82 -30 90 -4 9 -11 31 -15 50 -4 19 -11 41 -16 50 -4 8 -18 49 -29 90 -12
41 -25 84 -30 95 -4 11 -31 94 -60 185 -147 466 -172 546 -181 562 -5 10 -9
26 -9 35 0 10 -7 31 -15 47 -8 15 -15 36 -15 45 0 9 -7 29 -15 45 -8 15 -15
35 -15 43 0 8 -6 29 -14 46 -8 18 -16 43 -19 57 -3 14 -10 39 -16 55 -6 17
-27 84 -47 150 -20 66 -42 136 -49 155 -7 19 -27 82 -45 140 -18 58 -36 114
-40 125 -5 11 -15 43 -23 70 -30 99 -91 293 -142 450 -29 88 -61 187 -70 220
-27 89 -57 157 -84 187 -28 32 -135 98 -159 98 -9 0 -30 8 -47 18 -28 16 -86
17 -796 17 -553 0 -770 -3 -780 -11 -8 -6 -25 -15 -38 -19 -14 -4 -29 -11 -35
-16 -6 -5 -25 -20 -43 -34 -18 -14 -35 -35 -38 -45 -10 -33 -47 -23 -98 24
-44 40 -95 70 -190 110 -31 13 -76 16 -255 14 -119 -1 -280 -5 -357 -9z m690
-373 c33 -35 89 -100 125 -144 36 -45 72 -81 81 -81 9 -1 45 34 81 77 36 42
95 107 132 145 l65 67 705 0 706 0 14 -22 c8 -13 22 -48 31 -78 10 -30 35
-108 56 -172 22 -65 39 -123 39 -129 0 -6 6 -25 13 -42 8 -18 22 -59 32 -92 9
-33 23 -76 30 -95 28 -79 37 -107 46 -140 6 -19 14 -44 18 -55 5 -11 16 -47
26 -80 9 -33 23 -76 30 -95 8 -19 21 -57 29 -85 9 -27 36 -111 60 -185 24 -74
65 -202 90 -285 26 -82 58 -181 70 -220 13 -38 34 -104 46 -145 12 -41 28 -93
35 -115 8 -22 28 -87 46 -145 17 -58 44 -145 59 -195 28 -87 37 -119 79 -270
35 -124 110 -379 120 -405 5 -14 17 -52 26 -85 10 -33 21 -71 26 -85 4 -14 17
-59 29 -100 12 -41 25 -86 30 -100 5 -14 18 -59 30 -100 12 -41 32 -109 45
-150 12 -41 33 -109 45 -150 27 -91 63 -207 125 -405 26 -82 54 -172 63 -200
8 -27 18 -54 22 -60 14 -22 41 -106 38 -117 -4 -10 -57 -12 -225 -10 -220 3
-273 -3 -273 -31 0 -8 -9 -36 -21 -63 -11 -27 -25 -60 -31 -74 -67 -163 -42
-145 -206 -148 -160 -3 -158 -4 -123 72 10 23 35 82 55 131 37 90 47 114 71
170 7 17 27 63 44 104 17 40 31 79 31 87 0 7 7 20 16 28 13 13 42 16 156 16
l140 0 -7 48 c-4 26 -12 56 -18 67 -5 11 -14 33 -18 50 -7 28 -14 51 -44 135
-7 19 -27 82 -45 140 -18 58 -39 120 -46 138 -8 18 -14 39 -14 47 0 8 -6 29
-14 47 -15 35 -62 172 -76 223 -4 17 -13 45 -19 63 -6 17 -16 47 -22 65 -6 17
-14 46 -19 62 -5 17 -14 46 -21 65 -6 19 -17 51 -24 70 -7 19 -18 51 -24 70
-7 19 -17 53 -22 75 -6 22 -14 44 -20 49 -5 6 -9 19 -9 30 0 12 -7 34 -15 50
-8 15 -15 37 -15 48 0 11 -5 29 -12 41 -6 12 -15 35 -19 52 -4 16 -13 46 -20
65 -6 19 -17 51 -24 70 -7 19 -34 103 -60 185 -26 83 -53 165 -61 183 -8 18
-14 39 -14 47 0 8 -6 29 -14 47 -17 41 -33 89 -52 153 -8 28 -19 64 -24 80 -5
17 -27 82 -49 145 -22 63 -40 122 -41 130 0 8 -7 28 -15 44 -8 15 -15 35 -15
43 0 8 -6 29 -14 46 -7 18 -30 86 -50 152 -21 66 -41 127 -46 135 -4 9 -11 31
-15 50 -4 19 -11 41 -15 50 -5 8 -38 110 -75 225 -76 238 -94 292 -105 320 -5
11 -18 53 -30 92 -12 40 -25 75 -28 77 -4 2 -668 6 -1475 7 -1289 3 -1469 2
-1478 -11 -5 -8 -16 -35 -24 -60 -8 -25 -30 -90 -50 -145 -20 -55 -40 -113
-45 -130 -4 -16 -14 -46 -21 -65 -21 -60 -36 -104 -51 -145 -26 -71 -40 -109
-48 -140 -5 -16 -13 -43 -19 -60 -28 -77 -85 -245 -97 -285 -12 -42 -18 -60
-49 -150 -27 -77 -37 -108 -57 -170 -11 -36 -24 -74 -29 -85 -11 -26 -98 -281
-109 -320 -11 -40 -30 -93 -46 -133 -8 -18 -14 -41 -14 -50 0 -10 -4 -22 -9
-28 -6 -5 -14 -27 -20 -49 -9 -39 -26 -90 -42 -130 -14 -33 -40 -108 -49 -140
-4 -16 -18 -55 -30 -85 -12 -30 -25 -68 -30 -85 -11 -39 -29 -91 -46 -133 -8
-18 -14 -41 -14 -50 0 -10 -7 -27 -15 -38 -8 -10 -15 -31 -15 -45 0 -14 -7
-34 -15 -45 -8 -10 -15 -31 -15 -45 0 -14 -7 -34 -15 -45 -8 -10 -15 -27 -15
-37 0 -11 -6 -33 -14 -50 -8 -18 -16 -43 -19 -57 -6 -29 -24 -81 -42 -125 -8
-16 -16 -41 -18 -55 -3 -14 -15 -50 -27 -80 -12 -30 -26 -73 -31 -95 -6 -21
-14 -44 -18 -50 -5 -5 -11 -21 -14 -35 -3 -14 -11 -41 -17 -60 -7 -19 -18 -51
-25 -70 -7 -19 -18 -51 -24 -70 -7 -19 -16 -48 -21 -65 -5 -16 -18 -55 -30
-85 -23 -59 -38 -108 -47 -153 l-5 -27 128 0 c71 0 134 -4 140 -8 14 -9 29
-38 107 -202 142 -296 178 -375 180 -395 2 -19 -4 -20 -133 -23 -156 -3 -176
0 -186 31 -13 41 -127 272 -138 280 -6 4 -118 6 -248 5 -259 -3 -261 -3 -233
52 8 16 15 34 15 40 0 7 6 26 13 43 8 18 22 59 32 92 9 33 23 76 30 95 29 82
37 107 45 135 5 17 13 44 19 60 52 150 64 185 71 215 4 19 14 51 20 70 7 19
18 51 25 70 7 19 18 51 24 70 7 19 16 49 21 65 5 17 14 46 21 65 6 19 17 51
24 70 7 19 18 51 24 70 7 19 16 49 21 65 5 17 14 46 21 65 6 19 17 51 24 70 7
19 18 51 24 70 7 19 16 49 21 65 5 17 14 46 21 65 6 19 17 51 24 70 7 19 18
51 24 70 7 19 16 49 21 65 11 39 29 91 46 133 8 18 14 41 14 52 0 11 6 34 14
52 17 42 35 94 46 133 8 28 16 53 45 135 7 19 21 62 30 95 10 33 24 74 32 92
7 17 13 38 13 47 0 8 6 30 14 48 17 42 35 94 46 133 8 28 17 55 45 135 7 19
28 82 45 140 18 58 39 119 47 137 7 17 13 38 13 46 0 8 7 28 15 43 8 16 15 36
15 45 0 9 7 30 15 45 8 16 15 36 15 45 0 9 7 30 15 45 8 16 15 37 15 46 0 10
6 32 14 50 17 42 35 94 46 133 8 29 24 77 41 120 4 11 17 54 30 95 12 41 27
89 34 105 6 17 27 77 45 135 18 58 36 112 40 120 4 9 11 31 15 50 4 19 11 41
16 50 4 8 27 75 50 148 23 73 47 136 53 140 10 6 431 14 1151 20 l270 2 60
-64z m500 -517 l950 -11 22 -26 c13 -15 23 -32 23 -39 0 -7 6 -32 14 -55 8
-24 24 -77 36 -118 12 -41 25 -84 30 -95 8 -20 18 -51 60 -195 12 -41 25 -84
29 -95 5 -11 18 -51 29 -90 46 -153 55 -183 76 -250 13 -38 30 -95 39 -125 20
-67 52 -172 81 -265 13 -38 31 -97 40 -130 10 -33 31 -98 46 -145 14 -47 35
-112 44 -145 10 -33 25 -82 33 -110 9 -27 22 -65 29 -83 8 -18 14 -41 14 -52
0 -11 6 -34 14 -52 7 -18 21 -60 31 -93 9 -33 23 -78 30 -100 8 -22 16 -55 20
-72 4 -18 11 -35 16 -38 5 -4 9 -18 9 -33 1 -15 7 -38 15 -52 8 -14 14 -35 15
-47 0 -12 6 -37 14 -55 7 -18 21 -60 31 -93 9 -33 23 -76 30 -95 7 -19 20 -62
30 -95 9 -33 23 -78 30 -100 7 -22 20 -67 30 -100 10 -33 22 -71 27 -85 11
-28 35 -107 48 -160 4 -19 14 -49 20 -65 11 -26 10 -37 -2 -65 -9 -19 -23 -54
-32 -77 -25 -67 -48 -125 -66 -168 -9 -22 -22 -53 -28 -70 -29 -79 -145 -374
-156 -400 -8 -16 -21 -52 -30 -78 -24 -71 -43 -104 -63 -108 -10 -3 -231 -2
-490 1 l-473 5 -23 25 c-13 14 -47 57 -77 95 -30 39 -57 72 -60 75 -9 7 -148
181 -287 357 -34 43 -127 159 -208 258 -80 99 -185 231 -233 293 -50 64 -94
112 -104 112 -14 0 -78 -81 -263 -335 -31 -43 -136 -182 -172 -228 -33 -43
-82 -108 -196 -266 -155 -212 -290 -387 -305 -393 -9 -3 -245 -7 -523 -7
l-507 -1 -22 63 c-12 34 -29 76 -36 94 -8 17 -14 35 -14 41 0 5 -7 23 -15 38
-8 16 -15 36 -15 44 0 9 -4 20 -9 25 -5 6 -20 44 -35 85 -14 41 -35 100 -47
130 -11 30 -23 64 -27 75 -3 11 -11 31 -19 45 -7 14 -13 30 -13 37 0 7 -6 27
-14 45 -8 18 -22 53 -31 78 -9 25 -23 57 -31 72 -18 34 -18 98 0 140 8 18 28
80 46 138 17 58 36 119 41 135 6 17 14 44 19 60 8 28 16 54 45 135 14 38 65
201 91 290 9 30 22 71 29 90 17 49 40 124 60 200 9 36 23 81 30 100 7 19 20
62 30 95 9 33 23 75 31 93 8 18 14 43 14 55 1 12 7 33 15 47 8 14 14 35 15 47
0 12 6 37 14 55 7 18 22 60 31 93 10 33 30 98 45 145 15 47 42 132 60 190 18
58 38 121 45 140 7 19 21 62 30 95 10 33 24 74 32 92 7 17 13 36 13 43 0 6 13
51 29 98 29 86 78 240 106 337 9 28 28 93 44 145 16 52 36 122 46 155 43 151
68 222 88 243 20 22 22 22 321 22 166 0 729 -5 1251 -11z m-265 -3599 c19 -25
37 -47 40 -50 6 -5 128 -160 170 -216 60 -79 155 -200 167 -213 8 -7 40 -48
73 -90 33 -42 73 -92 89 -111 26 -29 39 -58 29 -61 -2 0 -46 -2 -98 -4 -52 -3
-127 -7 -166 -10 l-71 -6 -84 98 c-47 54 -100 118 -119 143 -59 77 -75 91 -93
84 -16 -6 -34 -29 -122 -154 -21 -30 -42 -59 -47 -65 -5 -5 -105 -140 -224
-300 l-214 -290 -58 -7 c-31 -3 -343 -11 -692 -17 -546 -9 -637 -13 -646 -26
-9 -12 2 -48 47 -163 33 -81 65 -160 73 -177 8 -16 16 -37 19 -46 4 -11 22
-18 59 -21 112 -11 3701 2 3714 13 7 6 16 25 20 42 3 17 10 38 15 47 21 40 38
83 44 110 4 16 11 32 16 35 5 4 9 13 9 21 0 8 9 34 19 57 11 24 23 55 26 69 6
23 3 28 -20 34 -14 3 -461 4 -993 1 l-967 -5 -80 77 c-44 42 -99 93 -123 114
l-43 38 28 38 c15 21 47 60 69 87 23 27 51 60 62 74 l20 25 77 -79 78 -78
1001 7 c550 4 1132 6 1293 5 288 -1 333 3 333 32 0 6 14 41 31 77 17 36 46 98
65 137 l34 71 97 -2 c54 -1 131 -2 170 -3 l73 -2 16 -37 c9 -21 33 -87 55
-147 29 -85 36 -113 27 -124 -9 -10 -41 -13 -139 -11 -129 3 -159 -4 -159 -37
0 -18 -26 -94 -61 -180 l-30 -71 -412 -5 -412 -6 -19 -26 c-18 -23 -72 -154
-151 -364 -15 -40 -34 -79 -42 -87 -12 -12 -56 -15 -250 -15 -275 0 -262 5
-294 -104 -11 -39 -24 -80 -29 -91 -5 -11 -18 -41 -29 -67 l-20 -48 -1298 6
c-714 3 -1303 7 -1310 9 -6 2 -25 32 -41 67 -76 164 -93 194 -114 208 -18 11
-61 14 -217 12 -188 -3 -194 -2 -217 19 -13 13 -24 27 -24 33 0 6 -27 67 -61
136 -33 69 -74 160 -91 203 -24 60 -38 82 -60 93 -24 13 -91 15 -419 13 -280
-1 -393 2 -403 10 -8 7 -17 26 -20 44 -4 18 -28 75 -54 127 -58 118 -67 123
-219 128 -62 2 -113 5 -113 6 0 0 11 33 25 71 13 39 25 77 25 85 0 8 7 28 15
44 8 15 15 37 15 47 0 10 5 21 11 25 7 4 93 7 192 7 146 0 182 -3 186 -14 2
-8 23 -54 46 -104 23 -49 50 -109 61 -133 12 -29 26 -45 43 -49 14 -3 250 -3
525 0 276 4 711 7 967 7 l466 0 373 498 c398 531 410 546 420 535 4 -5 22 -28
40 -53z" fill="#949494" class="color000 svgShape"></path><path d="M2499 5933c-19-22-27-43-74-198-37-123-123-396-199-635-24-74-64-202-91-285-26-82-53-166-60-185-7-19-20-60-29-90-10-30-24-71-31-90-7-19-34-102-60-185-26-82-53-166-60-185-20-57-35-101-56-170-12-36-27-80-35-98-8-18-14-39-14-47 0-8-6-29-14-47-8-18-29-80-46-138-17-58-38-120-46-138-8-18-14-39-14-47 0-8-6-29-14-47-12-29-29-80-93-293-9-27-21-66-28-85-7-19-22-64-34-100-21-67-34-107-58-173-22-63-17-94 33-204 8-17 14-36 14-41 0-6 20-59 44-119 24-60 63-161 86-224 76-207 132-344 148-363 16-18 32-18 417-11 220 4 422 7 448 6 47-1 107 21 107 39 0 5 42 65 93 133 50 69 155 211 232 317 77 106 174 236 215 289 42 53 107 139 145 191 145 200 180 246 210 278l31 33 24-34c14-19 48-61 77-93 28-33 78-90 110-129 32-38 63-75 68-81 6-6 28-33 50-60 22-26 57-69 79-94 45-54 47-55 161-194 50-60 108-133 130-162 22-28 76-94 120-146 44-52 113-139 154-192l73-98 441 6c283 4 445 10 453 17 7 6 18 26 25 46 6 19 17 47 25 61 8 15 14 33 14 40 0 7 4 20 9 30 5 9 26 58 46 107 20 50 40 99 45 110 12 31 66 166 101 253 17 42 37 91 44 107 29 66 27 98-15 242-22 76-47 156-54 178-8 22-22 67-31 100-10 33-39 128-66 210-26 83-68 218-94 300-25 83-61 197-80 255-18 58-45 143-59 190-56 185-159 520-186 605-15 50-43 137-60 195-18 58-46 146-61 195-16 50-36 115-45 145-33 112-47 156-59 190-7 19-21 62-30 95-10 33-24 80-31 105-15 49-66 211-95 303-11 31-19 64-19 72 0 8-8 18-17 24-11 5-488 11-1173 14-635 4-1171 9-1190 12-27 5-39 2-51-12zm-121-3705c-2-27 0-32 15-30 16 3 16 1 5-18-12-19-10-24 16-45 16-12 26-27 23-32-8-13-159-11-164 2-2 6 10 25 27 43 16 18 30 43 30 54 0 22 26 58 42 58 5 0 8-15 6-32zm2626-24c9-3 16-12 16-19 0-7 7-18 15-25 12-10 18-10 30 0 11 9 15 9 15 1 0-6 16-19 35-28 19-9 35-20 35-25 0-33-176-47-207-16-14 14-15 22-5 40 6 13 16 35 22 51 10 28 17 31 44 21zm-170-324c9 0 14-4 11-10-10-16-33-12-55 10-11 11-20 22-20 25 0 3-11 16-23 28-13 12-30 33-36 47-7 14 14-3 46-37 33-35 67-63 77-63zm-2984 54c0-8-4-12-10-9-5 3-10 13-10 21 0 8 5 12 10 9 6-3 10-13 10-21zm3479-55c9 0 3-5-14-10-16-5-46-7-65-3-30 6-32 8-15 15 11 5 33 6 49 4 16-3 36-5 45-6zm-2939-9c0-6-42-10-106-10-67 0-103 4-99 10 3 6 50 10 106 10 59 0 99-4 99-10zm145 0c-3-5-15-10-25-10-10 0-22 5-25 10-4 6 7 10 25 10 18 0 29-4 25-10zm-407-7c-16-2-40-2-55 0-16 2-3 4 27 4 30 0 43-2 28-4zM3025 639c-176-3-407-7-512-8-164-1-193-3-193-16 0-15 46-122 79-185l19-35 1248-3c687-1 1259 0 1272 3 12 3 28 18 34 33 23 58 27 69 42 119 9 28 16 63 16 77l0 26-842-2c-464-1-987-5-1163-9z" fill="#949494" class="color000 svgShape"></path></g></svg></g></svg>