<?xml version="1.0" standalone="no"?>
<!DOCTYPE svg PUBLIC "-//W3C//DTD SVG 20010904//EN"
 "http://www.w3.org/TR/2001/REC-SVG-20010904/DTD/svg10.dtd">
<svg version="1.0" xmlns="http://www.w3.org/2000/svg"
 width="300.000000pt" height="300.000000pt" viewBox="0 0 300.000000 300.000000"
 preserveAspectRatio="xMidYMid meet">
<metadata>
Created by potrace 1.10, written by Peter Selinger 2001-2011
</metadata>
<g transform="translate(0.000000,300.000000) scale(0.100000,-0.100000)"
fill="#ffffff" stroke="none">
<path d="M1922 2620 c-108 -29 -187 -75 -273 -160 -130 -129 -187 -282 -176
-468 l6 -95 -77 7 c-201 18 -418 82 -612 182 -170 87 -293 177 -437 320 l-122
121 -22 -51 c-81 -188 -69 -393 33 -564 18 -30 64 -86 102 -124 l69 -68 -49 6
c-42 6 -139 35 -196 59 -43 18 -9 -157 54 -277 70 -135 191 -239 340 -293 l62
-22 -34 -8 c-19 -5 -77 -8 -128 -8 l-93 0 6 -26 c25 -98 174 -264 288 -319 75
-36 164 -62 214 -62 18 0 33 -4 33 -10 0 -13 -102 -81 -185 -122 -174 -88
-304 -119 -525 -127 l-165 -6 132 -68 c697 -358 1540 -215 2055 350 117 128
203 257 287 433 112 235 171 485 171 723 l0 102 34 23 c64 44 255 248 256 274
0 4 -39 -6 -87 -23 -48 -16 -121 -35 -162 -43 l-76 -14 25 20 c98 80 159 152
199 237 17 36 29 66 27 68 -2 2 -45 -17 -97 -42 -52 -24 -136 -56 -186 -71
l-93 -26 -52 46 c-145 127 -356 176 -546 126z"/>
</g>
</svg>
