<?xml version="1.0" standalone="no"?>
<!DOCTYPE svg PUBLIC "-//W3C//DTD SVG 20010904//EN"
 "http://www.w3.org/TR/2001/REC-SVG-20010904/DTD/svg10.dtd">
<svg version="1.0" xmlns="http://www.w3.org/2000/svg"
 width="300.000000pt" height="300.000000pt" viewBox="0 0 300.000000 300.000000"
 preserveAspectRatio="xMidYMid meet">
<metadata>
Created by potrace 1.10, written by Peter Selinger 2001-2011
</metadata>
<g transform="translate(0.000000,300.000000) scale(0.100000,-0.100000)"
fill="#ffffff" stroke="none">
<path d="M1349 2390 c-66 -10 -150 -38 -234 -76 l-60 -27 77 -13 c93 -15 154
-34 276 -87 l93 -40 72 32 c115 53 216 82 307 90 l85 7 -76 37 c-121 58 -206
77 -354 82 -71 2 -155 0 -186 -5z"/>
<path d="M841 2108 c-127 -130 -220 -345 -237 -547 -13 -160 37 -371 124 -518
l47 -78 6 75 c9 97 26 144 115 320 78 156 179 317 278 445 34 44 65 86 69 92
9 14 -80 102 -162 162 -53 38 -158 91 -182 91 -9 0 -35 -19 -58 -42z"/>
<path d="M2056 2135 c-56 -20 -170 -99 -243 -170 l-63 -60 67 -85 c139 -179
281 -417 364 -610 24 -56 34 -96 38 -160 l6 -85 46 78 c198 332 156 787 -98
1058 -49 53 -58 55 -117 34z"/>
<path d="M1439 1621 c-135 -102 -353 -340 -455 -497 -90 -137 -115 -231 -77
-294 40 -68 261 -184 413 -216 94 -20 257 -17 370 6 153 31 380 153 416 222
49 94 -74 314 -314 562 -113 117 -271 266 -281 266 -4 0 -37 -22 -72 -49z"/>
</g>
</svg>
